<svg width="16" height="16" viewBox="0 0 16 16" fill="none" xmlns="http://www.w3.org/2000/svg">
<path fill-rule="evenodd" clip-rule="evenodd" d="M2.42023 0.830258C2.20697 0.631538 1.9249 0.523353 1.63345 0.528496C1.34199 0.533638 1.06392 0.651706 0.857798 0.857825C0.651678 1.06394 0.53361 1.34202 0.528468 1.63347C0.523326 1.92493 0.631511 2.207 0.830231 2.42026L6.41023 8.00026L0.830231 13.5803C0.7197 13.6833 0.631047 13.8075 0.569559 13.9455C0.508071 14.0834 0.475008 14.2324 0.472343 14.3835C0.469678 14.5345 0.497465 14.6846 0.554046 14.8247C0.610628 14.9647 0.694845 15.092 0.801673 15.1988C0.908501 15.3056 1.03575 15.3899 1.17583 15.4464C1.31592 15.503 1.46596 15.5308 1.61701 15.5281C1.76807 15.5255 1.91704 15.4924 2.05504 15.4309C2.19304 15.3694 2.31724 15.2808 2.42023 15.1703L8.00023 9.59026L13.5802 15.1703C13.6832 15.2808 13.8074 15.3694 13.9454 15.4309C14.0834 15.4924 14.2324 15.5255 14.3834 15.5281C14.5345 15.5308 14.6845 15.503 14.8246 15.4464C14.9647 15.3899 15.092 15.3056 15.1988 15.1988C15.3056 15.092 15.3898 14.9647 15.4464 14.8247C15.503 14.6846 15.5308 14.5345 15.5281 14.3835C15.5255 14.2324 15.4924 14.0834 15.4309 13.9455C15.3694 13.8075 15.2808 13.6833 15.1702 13.5803L9.59023 8.00026L15.1702 2.42026C15.3689 2.207 15.4771 1.92493 15.472 1.63347C15.4669 1.34202 15.3488 1.06394 15.1427 0.857825C14.9365 0.651706 14.6585 0.533638 14.367 0.528496C14.0756 0.523353 13.7935 0.631538 13.5802 0.830258L8.00023 6.41026L2.42023 0.830258Z" fill="white"/>
</svg>
