<svg width="14" height="15" viewBox="0 0 14 15" fill="none" xmlns="http://www.w3.org/2000/svg">
<path d="M3.86667 0.79834H9.46667C11.6 0.79834 13.3333 2.53167 13.3333 4.66501V10.265C13.3333 11.2905 12.926 12.274 12.2008 12.9992C11.4757 13.7243 10.4922 14.1317 9.46667 14.1317H3.86667C1.73333 14.1317 0 12.3983 0 10.265V4.66501C0 3.6395 0.40738 2.656 1.13252 1.93086C1.85766 1.20572 2.84116 0.79834 3.86667 0.79834ZM3.73333 2.13167C3.09681 2.13167 2.48636 2.38453 2.03628 2.83462C1.58619 3.2847 1.33333 3.89515 1.33333 4.53167V10.3983C1.33333 11.725 2.40667 12.7983 3.73333 12.7983H9.6C10.2365 12.7983 10.847 12.5455 11.2971 12.0954C11.7471 11.6453 12 11.0349 12 10.3983V4.53167C12 3.20501 10.9267 2.13167 9.6 2.13167H3.73333ZM10.1667 3.13167C10.3877 3.13167 10.5996 3.21947 10.7559 3.37575C10.9122 3.53203 11 3.74399 11 3.96501C11 4.18602 10.9122 4.39798 10.7559 4.55426C10.5996 4.71054 10.3877 4.79834 10.1667 4.79834C9.94565 4.79834 9.73369 4.71054 9.57741 4.55426C9.42113 4.39798 9.33333 4.18602 9.33333 3.96501C9.33333 3.74399 9.42113 3.53203 9.57741 3.37575C9.73369 3.21947 9.94565 3.13167 10.1667 3.13167ZM6.66667 4.13167C7.55072 4.13167 8.39857 4.48286 9.02369 5.10798C9.64881 5.7331 10 6.58095 10 7.46501C10 8.34906 9.64881 9.19691 9.02369 9.82203C8.39857 10.4472 7.55072 10.7983 6.66667 10.7983C5.78261 10.7983 4.93476 10.4472 4.30964 9.82203C3.68452 9.19691 3.33333 8.34906 3.33333 7.46501C3.33333 6.58095 3.68452 5.7331 4.30964 5.10798C4.93476 4.48286 5.78261 4.13167 6.66667 4.13167ZM6.66667 5.46501C6.13623 5.46501 5.62753 5.67572 5.25245 6.05079C4.87738 6.42587 4.66667 6.93457 4.66667 7.46501C4.66667 7.99544 4.87738 8.50415 5.25245 8.87922C5.62753 9.25429 6.13623 9.46501 6.66667 9.46501C7.1971 9.46501 7.70581 9.25429 8.08088 8.87922C8.45595 8.50415 8.66667 7.99544 8.66667 7.46501C8.66667 6.93457 8.45595 6.42587 8.08088 6.05079C7.70581 5.67572 7.1971 5.46501 6.66667 5.46501Z" fill="#FC9F00"/>
</svg>
