<svg width="21" height="18" viewBox="0 0 21 18" fill="none" xmlns="http://www.w3.org/2000/svg">
<path fill-rule="evenodd" clip-rule="evenodd" d="M20.8398 2.05642C20.8834 1.79174 20.8552 1.5202 20.7582 1.2701C20.6612 1.02 20.4989 0.800484 20.2883 0.634431C20.0776 0.468379 19.8262 0.361863 19.5604 0.32598C19.2945 0.290098 19.0239 0.326163 18.7768 0.430418L1.67678 7.63042C0.484783 8.13242 0.423783 9.85642 1.67678 10.3764C2.9175 10.8939 4.1763 11.3668 5.45078 11.7944C6.61878 12.1804 7.89278 12.5374 8.91378 12.6384C9.19278 12.9724 9.54378 13.2944 9.90178 13.5884C10.4488 14.0384 11.1068 14.5014 11.7868 14.9454C13.1488 15.8354 14.6598 16.6864 15.6778 17.2404C16.8948 17.9004 18.3518 17.1404 18.5698 15.8134L20.8398 2.05642ZM3.59378 8.99342L18.7178 2.62542L16.5998 15.4654C15.6008 14.9224 14.1618 14.1094 12.8798 13.2714C12.2889 12.8921 11.7185 12.4818 11.1708 12.0424C11.0244 11.9228 10.8823 11.7981 10.7448 11.6684L14.7058 7.70842C14.8934 7.52091 14.9989 7.26654 14.999 7.00127C14.9991 6.736 14.8938 6.48156 14.7063 6.29392C14.5188 6.10628 14.2644 6.00081 13.9991 6.00072C13.7339 6.00062 13.4794 6.10591 13.2918 6.29342L8.95478 10.6304C8.22078 10.5364 7.19878 10.2644 6.07678 9.89442C5.24148 9.61615 4.41384 9.31538 3.59478 8.99242L3.59378 8.99342Z" fill="white"/>
</svg>
