<svg width="316" height="149" viewBox="0 0 316 149" fill="none" xmlns="http://www.w3.org/2000/svg">
<g opacity="0.2" clip-path="url(#clip0_170_403)">
<path d="M306.917 36.7711L306.822 36.7167V36.7982L306.917 36.7711ZM305.971 36.0376L306.192 35.9561V35.8475L305.971 36.0376ZM309.879 33.9189L309.848 33.5386L309.785 33.3213L309.879 33.9189ZM296.106 31.121L295.885 31.2025L294.089 31.6643L293.459 31.8544L292.734 32.0446L292.482 32.1261V32.2076L292.576 33.6201L292.671 34.9239L292.765 36.1191L292.923 36.2006L293.49 36.0648L296.043 35.4129L296.106 35.5487L300.645 34.0547L300.676 34.109L301.086 33.9732L302.536 33.4843L303.922 34.9239L304.112 34.7881L304.206 34.3807L304.175 35.0326H304.49L304.584 35.3585L304.868 35.8203L306.349 34.272L307.578 34.6251L307.862 34.0819L309.879 33.1583L309.028 31.7186L309.249 32.6422L308.209 33.3213L307.043 33.4028L304.71 31.2568L303.67 29.8987L304.71 28.9479L303.639 28.8936L303.197 27.9972L303.166 27.9429L301.369 29.627L297.398 30.7679L296.106 31.121Z" fill="#273340" stroke="white" stroke-width="0.970631" stroke-linejoin="round"/>
<path d="M177.758 14.6073L178.389 16.5359L179.712 23.4898L180.343 26.2605L180.532 28.7052L181.257 30.172L181.414 31.4216L181.54 31.829L181.509 31.9105L180.248 33.7033L181.068 34.8985L182.643 44.4601L182.706 45.7097L184.282 45.6282L190.491 45.3294L205.998 44.2157L207.542 44.0798V43.944L207.101 41.8524L205.178 41.0103L203.666 39.6522L201.27 38.4026L200.514 38.3483L199.348 37.5877L199.663 33.8391L198.56 32.9699L198.938 31.4487L200.955 29.8732L200.608 26.6136L201.333 25.9074L203.792 23.6799L206.597 20.5833L207.668 19.9313L209.559 19.1436L211.545 17.8669L210.221 18.0842L209.433 17.5681L206.408 17.9212L205.935 17.4323L203.224 18.383L201.05 17.5953L200.451 16.9705L198.717 17.0792L197.551 16.5631L197.929 16.1828L196.448 15.7753H195.124L193.013 16.5631L192.603 16.0198L189.262 15.6123L188.127 13.1676L188.001 12.4342L186.552 12.0811L186.678 14.1727L182.833 14.4171L178.073 14.5801L177.758 14.6073Z" fill="#273340" stroke="white" stroke-width="0.970631" stroke-linejoin="round"/>
<path d="M147.596 14.3602L137.164 13.7626L129.568 13.1378L122.004 12.3772L117.308 11.834L109.807 10.8289L106.056 10.2856L97.6724 8.90029L96.7899 8.7373L95.4347 14.2787L96.0335 15.2837L96.5063 16.8321L96.2226 17.0494L96.8215 18.4619L97.6409 19.0595L99.9732 22.4278L100.194 22.9982L101.139 22.9439L100.036 27.3987L99.595 27.5074L98.9962 29.0014L102.116 29.1915L102.369 30.4411L104.133 34.1625L104.449 34.3798L105.678 36.5529L105.993 36.3356L108.609 36.3084L111.918 36.6072L112.738 35.6836L113.715 37.2048L113.904 37.2863L113.935 37.1233L114.377 34.4613L125.156 35.6021L133.76 36.3084L138.298 36.6344L146.398 37.0418L146.808 37.069H146.903L146.934 36.6887L147.029 34.8144L147.155 32.3425L147.186 31.7178L147.249 30.6312L147.754 22.1018L148.163 15.4739L148.195 14.3873L147.596 14.3602Z" fill="#273340" stroke="white" stroke-width="0.970631" stroke-linejoin="round"/>
<path d="M177.096 14.607L167.578 14.7699L160.928 14.7428L155.223 14.6341L148.541 14.4168L148.195 14.3896L148.163 15.4762L147.754 22.1041L147.249 30.6335L147.186 31.7201L148.415 31.7744L162.315 32.1003L175.142 32.0189L180.469 31.883L181.54 31.8287L181.414 31.4213L181.257 30.1717L180.532 28.7049L180.343 26.2602L179.712 23.4895L178.388 16.5356L177.758 14.607L177.096 14.607Z" fill="#273340" stroke="white" stroke-width="0.970631" stroke-linejoin="round"/>
<path d="M131.585 138.066L130.608 137.441L129.757 137.631L129.946 139.152L128.78 140.402L129.789 142.385L130.072 144.422L131.238 145.074L131.963 144.069L133.256 143.254L134.831 142.901L136.565 141.624L134.863 140.375L134.831 139.614L131.585 138.066ZM125.849 135.866L125.376 135.512L124.935 136.029L125.849 135.866ZM123.485 134.698L123.611 133.693L123.012 133.611L123.485 134.698ZM125.471 133.041L124.935 133.258L125.313 134.29L126.133 134.344L126.385 135.241L127.267 135.567L129.221 134.779L127.393 133.475L125.471 133.041ZM121.437 131.927L121.153 132.66L122.508 132.633L123.769 132.905L123.107 132.008L121.437 131.927ZM117.465 129.781L116.74 129.183L115.354 130.107L116.236 131.519L116.867 130.949L118.663 131.275L118.505 130.623L117.465 129.781ZM103.346 128.586L103.535 128.205L104.07 127.961L103.346 128.586ZM108.357 126.114L106.151 126.82L105.93 127.336L106.812 127.879L108.042 128.151L108.924 126.657L108.357 126.114ZM93.0709 121.116V121.089H93.0079L93.0709 121.116ZM76.3667 117.557V117.612H76.3982L76.3667 117.557ZM66.9745 115.493H66.9115V115.52L66.9745 115.493ZM57.2671 108.457L57.2356 108.376V108.403L57.2671 108.457ZM35.6777 102.509L35.5831 102.59L35.6462 102.617L35.6777 102.509ZM0 83.7114L0.0945522 83.6842V83.6299L0 83.7114Z" fill="#273340"/>
<path d="M67.6048 116.308L67.6364 116.335M67.1951 115.493H67.1636V115.466M13.6155 88.8182H13.584M131.585 138.066L130.608 137.441L129.757 137.631L129.946 139.152L128.78 140.402L129.789 142.385L130.072 144.422L131.238 145.074L131.963 144.069L133.256 143.254L134.831 142.901L136.565 141.624L134.863 140.375L134.831 139.614L131.585 138.066ZM125.849 135.866L125.376 135.512L124.935 136.029L125.849 135.866ZM123.485 134.698L123.611 133.693L123.012 133.611L123.485 134.698ZM125.471 133.041L124.935 133.258L125.313 134.29L126.133 134.344L126.385 135.241L127.267 135.567L129.221 134.779L127.393 133.475L125.471 133.041ZM121.437 131.927L121.153 132.66L122.508 132.633L123.769 132.905L123.107 132.008L121.437 131.927ZM117.465 129.781L116.74 129.183L115.354 130.107L116.236 131.519L116.867 130.949L118.663 131.275L118.505 130.623L117.465 129.781ZM103.346 128.586L103.535 128.205L104.07 127.961L103.346 128.586ZM108.357 126.114L106.151 126.82L105.93 127.336L106.812 127.879L108.042 128.151L108.924 126.657L108.357 126.114ZM93.0709 121.116V121.089H93.0079L93.0709 121.116ZM76.3667 117.557V117.612H76.3982L76.3667 117.557ZM66.9745 115.493H66.9115V115.52L66.9745 115.493ZM57.2671 108.457L57.2356 108.376V108.403L57.2671 108.457ZM35.6777 102.509L35.5831 102.59L35.6462 102.617L35.6777 102.509ZM0 83.7114L0.0945522 83.6842V83.6299L0 83.7114Z" stroke="white" stroke-width="0.970631" stroke-linejoin="round"/>
<path d="M96.7587 8.74007L93.9536 8.25113L93.0396 8.06098L92.6299 7.97949L88.9739 22.1589L89.1315 23.327L89.0054 24.5493L89.0684 24.821V24.8481L89.1 25.3642L90.1716 26.3693L88.6272 29.7104L85.3494 33.4047L85.2548 34.0838L86.1058 35.8222L83.1117 46.5247L82.9856 47.0952L83.8681 47.2581L92.7875 48.7793L96.349 49.3497L97.263 49.4856L98.1455 49.6214L102.684 50.2461L110.815 51.3055L111.729 51.4142L111.856 50.5178L112.139 48.7521L113.211 41.6896L113.778 38.1855L113.904 37.2891L113.715 37.2076L112.738 35.6864L111.919 36.61L108.609 36.3112L105.993 36.3384L105.678 36.5557L104.449 34.3826L104.134 34.1653L102.369 30.4439L102.117 29.1943L98.9964 29.0042L99.5953 27.5102L100.037 27.4015L101.14 22.9467L100.194 23.001L99.9735 22.4306L97.6412 19.0623L96.8217 18.4647L96.2229 17.0522L96.5066 16.8349L96.0338 15.2865L95.435 14.2815L96.7902 8.74009L96.7587 8.74007Z" fill="#273340" stroke="white" stroke-width="0.970631" stroke-linejoin="round"/>
<path d="M58.7802 15.5031L58.8118 15.0413L58.7487 15.0685L58.7802 15.5031ZM65.4935 13.0312L65.6826 12.7596L65.4619 12.7324L65.4935 13.0312ZM64.8946 12.5423L65.0837 11.999L64.8946 11.9447V12.5423ZM67.1954 11.7545L67.1639 11.2112L66.6281 11.9175L67.1954 11.7545ZM67.2584 10.6136L67.353 10.0704L67.2899 9.93456L67.2584 10.6136ZM67.353 7.95161L67.3215 7.65281L67.1954 7.62565L67.353 7.95161ZM68.3615 6.15881L68.0779 6.13165L67.5106 6.89223L68.3615 6.15881ZM67.5736 5.42539L67.7312 5.31674L67.7627 5.23524L67.5736 5.42539ZM67.416 5.50688L67.3215 4.96361L67.0378 5.42539L67.416 5.50688ZM67.2584 4.7463L66.9748 4.63765L67.1954 4.90928L67.2584 4.7463ZM68.204 5.20808V4.85495L68.1094 4.99077L68.204 5.20808ZM68.4876 4.85495L68.3615 4.77346H68.33L68.4876 4.85495ZM66.6911 4.25735L66.5335 4.1487L66.4705 4.12154L66.6911 4.25735ZM67.8573 4.1487L67.0063 4.33884L67.2269 4.39317L67.8573 4.1487ZM67.1639 4.09437L67.0063 3.93139L66.9748 3.95855L67.1639 4.09437ZM67.8257 3.76841H67.6997L67.8573 3.82273L67.8257 3.76841ZM61.6483 17.7034L62.783 18.7627L62.5939 20.8L62.8145 21.3161L64.5164 22.1039L69.3071 22.4842L69.4962 22.9731L71.7654 23.0003L73.9086 23.2448L77.407 22.9188L79.1405 23.1633L79.6133 22.9731L88.4696 24.7116L89.0685 24.8202L89.0054 24.5486L89.1315 23.3262L88.9739 22.1582L92.6299 7.97878L92.1257 7.89729L84.7506 6.40329L78.321 4.99078L71.0405 3.25231L68.8658 2.79053L69.3701 5.15377L68.8973 5.91435L68.0464 5.53406L68.8658 8.82086L67.9833 9.9074L67.5736 10.9125V11.9447L65.7141 13.0584L64.9261 12.6238L64.1697 12.9497L65.5565 11.4014L65.2098 12.4608L65.9977 11.7274L66.6281 11.836L66.439 10.4778L66.8487 10.5322L67.6997 8.90235L67.416 8.65788L66.3129 9.88024L65.588 9.9074L66.3759 9.14682L67.2584 8.95668L66.9433 7.57133L66.0608 7.38118L65.6195 6.72926L65.0837 6.97373L62.1841 5.88718L59.6312 4.17587L58.9378 5.83286L58.8748 6.53911L59.4106 7.78864L59.0639 11.836L58.8118 12.4608L60.23 12.5694L58.8118 13.4387L59.5682 13.7646L58.9694 15.5031L58.6857 14.1449L58.1499 15.7204L58.8748 16.481L59.6627 16.4267L60.6083 16.9156L61.081 17.7034L61.6483 17.7034Z" fill="#273340" stroke="white" stroke-width="0.970631" stroke-linejoin="round"/>
<path d="M117.245 80.6681L106.623 79.5273L100.919 78.821L92.7873 77.7073L91.9679 77.5986V77.653L90.5811 82.9227L89.8562 82.8955L88.7531 82.0535L87.3663 83.0585L87.3348 87.3775L86.8305 88.3011V88.3826V88.4098L86.7675 89.0889L87.8706 91.6422L88.8477 92.7831L87.0827 93.6795L86.3893 94.7932L85.2547 97.1836L84.6873 97.2923L84.6558 99.2752L85.6329 99.9L85.1286 101.095L83.994 101.15L83.3321 102.209L85.6013 103.431L89.8877 105.496L103.125 111.553L114.345 112.748H114.471L115.354 104.735L115.574 102.752L117.938 81.7275L118.064 80.7496L117.245 80.6681Z" fill="#273340" stroke="white" stroke-width="0.970631" stroke-linejoin="round"/>
<path d="M63.287 95.7457L63.413 96.3433V96.4519L63.287 95.7457ZM58.6539 93.4096L58.8745 93.8171L59.0006 93.7899L58.6539 93.4096ZM64.1695 93.3281L64.264 94.0344L64.8313 94.3875L64.1695 93.3281ZM60.3559 89.4709L60.0092 89.3894L60.2928 89.498L60.3559 89.4709ZM56.8574 88.656L56.0065 89.0906L56.2271 89.2807L56.8574 88.656ZM55.2185 88.1398L55.1555 88.3572L55.4391 88.4115L55.2185 88.1398ZM57.9921 88.6831L59.3788 89.3622L59.631 89.1721L57.9921 88.6831ZM50.617 64.8878L50.5854 64.8063V64.9149L50.617 64.8878ZM68.8025 44.2706L67.5733 43.9989L54.0839 40.7936L49.0726 39.4897V39.5984L48.789 42.2876L47.4652 45.4657L45.259 47.829L45.196 49.0242L46.2676 50.6812L46.8034 52.8543L46.047 54.6199L46.173 56.3855L45.7948 57.119L47.087 59.5365L47.9065 60.4601L47.8434 63.095L49.7975 64.6976L50.9321 63.0678L52.1613 63.9099L52.6341 63.5296L50.9321 63.8012L50.9006 65.1866L51.2473 66.925L50.3018 66.1373L49.766 65.0779L49.6084 66.5447L50.0497 69.4513L51.8146 71.3255L50.6485 72.6294L50.8376 74.2864L52.0983 75.9705L54.3045 81.186L54.9979 81.5119L54.7773 85.1247L55.124 85.5593L59.8516 87.0261L61.3014 88.3572L61.8056 89.2264L63.1924 89.9055L64.7052 90.15L65.3356 91.644L66.5963 92.1601L68.4873 94.0887L70.2523 96.6149L70.1262 98.951L71.1033 100.065L83.9939 101.151L85.1285 101.097L85.6328 99.9017L84.6558 99.2769L84.6873 97.294L85.2546 97.1853L86.3892 94.7949L87.0826 93.6812L88.8476 92.7848L87.8705 91.644L86.7674 89.0906L86.8305 88.4115V88.3843L86.011 87.4336L83.4896 84.5271L78.6044 78.6054L71.7967 70.1847L67.9515 65.594L64.2325 60.9762L68.5189 45.3028L68.8025 44.2706Z" fill="#273340"/>
<path d="M47.2446 64.7519L47.2131 64.7791M63.287 95.7457L63.413 96.3433V96.4519L63.287 95.7457ZM58.6539 93.4096L58.8745 93.8171L59.0006 93.7899L58.6539 93.4096ZM64.1695 93.3281L64.264 94.0344L64.8313 94.3875L64.1695 93.3281ZM60.3559 89.4709L60.0092 89.3894L60.2928 89.498L60.3559 89.4709ZM56.8574 88.656L56.0065 89.0906L56.2271 89.2807L56.8574 88.656ZM55.2185 88.1398L55.1555 88.3572L55.4391 88.4115L55.2185 88.1398ZM57.9921 88.6831L59.3788 89.3622L59.631 89.1721L57.9921 88.6831ZM50.617 64.8878L50.5854 64.8063V64.9149L50.617 64.8878ZM68.8025 44.2706L67.5733 43.9989L54.0839 40.7936L49.0726 39.4897V39.5984L48.789 42.2876L47.4652 45.4657L45.259 47.829L45.196 49.0242L46.2676 50.6812L46.8034 52.8543L46.047 54.6199L46.173 56.3855L45.7948 57.119L47.087 59.5365L47.9065 60.4601L47.8434 63.095L49.7975 64.6976L50.9321 63.0678L52.1613 63.9099L52.6341 63.5296L50.9321 63.8012L50.9006 65.1866L51.2473 66.925L50.3018 66.1373L49.766 65.0779L49.6084 66.5447L50.0497 69.4513L51.8146 71.3255L50.6485 72.6294L50.8376 74.2864L52.0983 75.9705L54.3045 81.186L54.9979 81.5119L54.7773 85.1247L55.124 85.5593L59.8516 87.0261L61.3014 88.3572L61.8056 89.2264L63.1924 89.9055L64.7052 90.15L65.3356 91.644L66.5963 92.1601L68.4873 94.0887L70.2523 96.6149L70.1262 98.951L71.1033 100.065L83.9939 101.151L85.1285 101.097L85.6328 99.9017L84.6558 99.2769L84.6873 97.294L85.2546 97.1853L86.3892 94.7949L87.0826 93.6812L88.8476 92.7848L87.8705 91.644L86.7674 89.0906L86.8305 88.4115V88.3843L86.011 87.4336L83.4896 84.5271L78.6044 78.6054L71.7967 70.1847L67.9515 65.594L64.2325 60.9762L68.5189 45.3028L68.8025 44.2706Z" stroke="white" stroke-width="0.970631" stroke-linejoin="round"/>
<path d="M155.381 65.4561L155.507 60.132L153.994 60.0777L146.304 59.8332L145.548 59.806L144.917 59.7789L135.557 59.2628L129.316 58.8281L121.531 58.1762L120.775 58.0947L120.68 58.801L118.979 72.9532L118.38 77.897L118.128 80.043L118.065 80.7492L119.042 80.8307L134.926 82.0259L141.923 82.4062L148.889 82.6778L149.897 82.705L150.527 82.7322L151.851 82.7594L152.482 82.7865L154.467 82.8409H154.971V82.2976L155.318 67.928L155.35 66.3254V65.8092L155.381 65.4561Z" fill="#273340" stroke="white" stroke-width="0.970631" stroke-linejoin="round"/>
<path d="M92.1251 76.7281L95.4029 59.1533L97.0733 50.3522L97.2624 49.483L96.3484 49.3472L92.787 48.7767L83.8675 47.2556L82.985 47.0926L82.1025 46.9296L77.6586 46.0875L69.6847 44.4577L68.8022 44.2676L68.5185 45.2998L64.2322 60.9732L67.9512 65.591L71.7964 70.1817L78.6041 78.6024L83.4893 84.5241L86.0107 87.4306L86.8302 88.3813V88.2999L87.3344 87.3763L87.366 83.0573L88.7527 82.0522L89.8558 82.8943L90.5807 82.9215L91.9675 77.6517V77.5974L92.1251 76.7281Z" fill="#273340" stroke="white" stroke-width="0.970631" stroke-linejoin="round"/>
<path d="M149.802 84.8241L149.834 84.1178L149.866 83.4116L149.897 82.7053L148.889 82.6781L141.923 82.4065L134.926 82.0262L119.042 80.831L118.064 80.7495L117.938 81.7274L115.575 102.752L115.354 104.735L114.471 112.748L114.598 112.775L118.947 113.129L119.357 111.227L120.145 110.684L128.97 111.363H129.033L128.245 110.032L132.247 110.276L142.238 110.765L148.479 111.01L149.55 85.5303L149.771 85.5575L149.802 84.8241Z" fill="#273340" stroke="white" stroke-width="0.970631" stroke-linejoin="round"/>
<path d="M49.0725 39.4897L54.0838 40.7935L67.5732 43.9988L68.8024 44.2705L69.6849 44.4606L77.6588 46.0904L82.1028 46.9325L82.9852 47.0955L83.1113 46.5251L86.1055 35.8226L85.2545 34.0841L85.349 33.405L88.6269 29.7108L90.1712 26.3696L89.0996 25.3646L89.0681 24.8485V24.8213L88.4693 24.7126L79.6129 22.9742L79.1401 23.1643L77.4067 22.9198L73.9082 23.2458L71.765 23.0013L69.4958 22.9742L69.3067 22.4852L64.516 22.1049L62.8141 21.3172L62.5935 20.8011L62.7826 18.7638L61.6479 17.7044L61.5534 17.7316L61.3328 17.8674L59.7569 17.1611L58.8114 17.4056L58.181 17.134L57.5192 19.47L57.0779 20.122L55.1238 24.2237L54.5565 26.4783L54.2098 26.5054L52.3818 30.254L51.1527 31.8567L50.7114 32.1283L49.5768 34.0298L49.3562 36.0399L48.6628 37.8327L49.0725 39.4625L49.0725 39.4897ZM60.6079 17.1883L60.5133 16.9438L60.4818 17.134L60.6079 17.1883Z" fill="#273340" stroke="white" stroke-width="0.970631" stroke-linejoin="round"/>
<path d="M110.815 51.3053L102.684 50.2459L98.1453 49.6212L97.2628 49.4854L97.0737 50.3546L95.4033 59.1556L92.1255 76.7305L91.9679 77.5997L92.7873 77.7084L100.919 78.8221L106.623 79.5284L117.245 80.6692L118.064 80.7507L118.127 80.0445L118.379 77.8985L118.978 72.9547L120.68 58.8025L120.775 58.0962L120.144 58.0419L112.107 57.1998L110.878 57.064L111.666 51.7671L111.729 51.414L110.815 51.3053Z" fill="#273340" stroke="white" stroke-width="0.970631" stroke-linejoin="round"/>
<path d="M146.209 47.7212L146.462 43.4837L146.777 37.7793L146.808 37.0731L146.399 37.0459L138.299 36.6384L133.76 36.3125L125.156 35.6062L114.377 34.4653L113.936 37.1274L113.904 37.2904L113.778 38.1868L113.211 41.6909L112.139 48.7534L111.856 50.5191L111.729 51.4155L111.666 51.7686L110.878 57.0655L112.108 57.2013L120.145 58.0434L120.775 58.0977L121.531 58.1792L129.316 58.8311L135.557 59.2657L144.917 59.7819L145.548 59.809L145.579 59.1028L145.737 56.2506L146.02 51.2796L146.146 49.1609L146.178 48.4546L146.209 47.7212Z" fill="#273340" stroke="white" stroke-width="0.970631" stroke-linejoin="round"/>
<path d="M220.59 85.7494L217.186 86.184L218.573 84.2825L217.974 83.2231L205.966 84.2282L195.818 84.9345L194.336 85.016L194.525 85.7765L195.754 91.2636L195.786 92.486L196.133 99.8745L196.164 101.097L196.259 101.124L196.732 101.559L198.623 101.504L198.812 103.895L198.875 104.574L199.852 104.492L202.846 104.302L214.728 103.351H214.791L214.759 102.754L215.075 102.564L214.507 101.64L215.705 97.2939L215.232 96.805L217.029 95.0937L216.903 93.6268L218.226 91.7254V91.6982L218.163 91.6439L219.298 90.7475L218.983 89.6609L219.865 88.4657L219.676 87.352L220.622 85.7765V85.7494L220.59 85.7494Z" fill="#273340" stroke="white" stroke-width="0.970631" stroke-linejoin="round"/>
<path d="M211.198 49.2669L209.465 48.4791L208.519 47.3654L208.204 45.7628L208.456 45.0293L207.542 44.0786L205.998 44.2144L190.492 45.3281L184.283 45.6269L182.707 45.7084L182.045 45.7356L182.581 48.7508L182.139 50.1904L182.833 51.0868V51.277L183.053 51.3042L184.062 53.8576L185.039 55.1886L185.102 56.7097L186.174 57.9864L185.985 58.5297L186.962 61.9523V62.0338L193.423 61.8708L200.325 61.3547L207.101 60.6213L208.646 61.7893L208.709 61.8437L208.992 61.735L208.772 60.6756L209.938 60.0509L210.411 57.2802L209.938 57.09L210.221 55.6775L211.64 55.433L213.216 54.4552L213.909 52.7438L213.941 51.8746L212.68 50.8424L212.302 50.1905L211.104 49.5385L211.167 49.4027L211.198 49.2669Z" fill="#273340" stroke="white" stroke-width="0.970631" stroke-linejoin="round"/>
<path d="M194.116 81.4547L193.328 69.9645L191.91 69.2582L191.784 68.715L190.649 67.8457L191.752 66.6777L191.311 65.9986L190.491 66.0258L189.735 65.564L189.42 65.3467L188.348 65.401L176.718 65.7813L171.392 65.89H160.802L156.547 65.8356L155.349 65.8084V66.3246L155.318 67.9272L154.971 82.2968V82.8401L156.326 82.8672L163.639 82.9487L180.752 82.7314L192.95 82.2425L194.147 82.161L194.116 81.4547Z" fill="#273340" stroke="white" stroke-width="0.970631" stroke-linejoin="round"/>
<path d="M208.645 61.7891L207.101 60.6211L200.325 61.3545L193.422 61.8706L186.961 62.0336L186.93 62.1966L187.718 63.5004L188.443 63.9351L189.294 65.2389L189.42 65.3476L189.735 65.5649L190.491 66.0267L191.311 65.9995L191.752 66.6786L190.649 67.8466L191.784 68.7159L191.91 69.2591L193.328 69.9654L194.116 81.4556L194.147 82.1619L194.21 82.8681L194.242 83.5744L194.305 84.3078L194.336 85.014L195.818 84.9326L205.966 84.2263L217.975 83.2212L218.573 84.2806L217.187 86.1821L220.59 85.7475H220.622V85.5302L220.685 84.2806L221.315 83.6015L221.126 82.841L221.095 82.8138L221.063 82.7866L221.189 82.4335L221.378 82.4878L221.473 82.7051L221.441 82.7866V82.8138V83.0311L221.568 83.0583L221.82 82.7866V82.7595L221.851 82.678L222.671 82.2433L222.797 82.189L223.08 79.9616L223.017 79.8529L222.923 79.8258L220.685 78.2503L221.032 77.6798L220.401 76.1315L219.267 75.3709L217.124 74.556L215.768 73.6053L215.926 71.6495L216.336 69.8295L214.066 69.9382L213.373 69.3134L213.058 68.0639L209.465 65.4562L208.456 63.0386L208.708 61.8434L208.645 61.7891Z" fill="#273340" stroke="white" stroke-width="0.970631" stroke-linejoin="round"/>
<path d="M182.233 51.2243L181.256 50.3823L177.821 49.513L176.718 49.4858L175.048 49.8933L173.062 48.8068L166.853 48.8611L157.807 48.7796L147.123 48.4808L146.178 48.4536L146.146 49.1599L146.02 51.2786L145.736 56.2496L145.579 59.1018L145.547 59.808L146.304 59.8352L153.994 60.0797L155.507 60.134L155.381 65.4581L155.349 65.8112L156.547 65.8384L160.802 65.8927H171.391L176.718 65.784L188.348 65.4038L189.419 65.3494L189.293 65.2408L188.442 63.9369L187.717 63.5023L186.93 62.1984L186.961 62.0355V61.954L185.984 58.5314L186.173 57.9881L185.102 56.7114L185.038 55.1902L184.061 53.8592L183.053 51.3058L182.832 51.2786L182.233 51.2243Z" fill="#273340" stroke="white" stroke-width="0.970631" stroke-linejoin="round"/>
<path d="M194.305 84.3095L194.242 83.5761L194.21 82.8698L194.147 82.1636L192.95 82.2451L180.752 82.734L163.638 82.9513L156.326 82.8698L154.971 82.8427H154.467L152.481 82.7883L151.851 82.7612L150.527 82.734L149.897 82.7068L149.865 83.4131L149.834 84.1193L149.802 84.8256L149.771 85.559H149.96L157.587 85.722L165.656 85.8035L165.75 95.0934L166.317 96.7233L167.578 97.7555L168.933 97.8098L169.217 97.3209L171.076 98.7877L173.503 99.005L173.945 99.4396L174.827 99.0865L177.033 99.9829V100.499L177.853 100.472L178.704 99.8471L180.28 100.716L181.761 101.178L182.769 99.9829L185.984 101.287L187.182 100.445L188.159 100.119L188.947 100.282L191.91 99.5483L193.485 100.119L194.904 100.906L196.133 101.097H196.164L196.133 99.8742L195.786 92.4857L195.755 91.2633L194.525 85.7763L194.336 85.0157L194.305 84.3095Z" fill="#273340" stroke="white" stroke-width="0.970631" stroke-linejoin="round"/>
<path d="M180.469 31.8808L175.142 32.0166L162.315 32.0981L148.415 31.7721L147.186 31.7178L147.155 32.3425L147.029 34.8144L146.934 36.6887L146.903 37.069H146.808L146.777 37.7753L146.461 43.4796L146.209 47.7172L146.178 48.4506L147.123 48.4778L157.808 48.7766L166.853 48.858L173.062 48.8037L175.048 49.8903L176.718 49.4828L177.821 49.51L181.257 50.3792L182.234 51.2213L182.832 51.2756V51.0855L182.139 50.1891L182.58 48.7494L182.044 45.7342L182.706 45.7071L182.643 44.4575L181.067 34.8959L180.248 33.7007L181.509 31.9079L181.54 31.8264L180.469 31.8808Z" fill="#273340" stroke="white" stroke-width="0.970631" stroke-linejoin="round"/>
<path d="M220.117 125.272L219.708 125.354L219.519 125.517L220.117 125.272ZM221.441 125.272L221.221 125.191L221.158 125.272H221.441ZM222.198 125.055H221.977L221.851 125.191L222.198 125.055ZM221.819 124.865L221.756 124.783L221.725 124.865H221.819ZM224.341 123.425L224.246 123.479H224.404L224.341 123.425ZM228.753 121.822L228.942 121.605L228.722 121.85L228.753 121.822ZM229.384 121.116L229.321 121.143V121.17L229.384 121.116ZM213.184 123.507L213.656 122.99L212.364 122.692L211.797 123.099L213.184 123.507ZM226.263 121.143L226.137 121.035L226.106 121.089L226.263 121.143ZM226.61 120.654L226.295 120.573L226.389 120.844L226.61 120.654ZM229.194 120.193V120.111V120.138V120.193ZM229.825 119.839L229.793 119.812L229.825 119.867V119.839ZM229.573 119.785L229.51 119.758L229.478 119.839L229.573 119.785ZM227.366 119.704L227.65 119.622V119.541L227.366 119.704ZM227.524 119.568L227.682 119.432L227.65 119.405L227.524 119.568ZM226.421 118.563L226.358 118.617H226.389L226.421 118.563ZM214.791 103.351H214.728L202.846 104.302L199.852 104.492L198.875 104.573L198.906 105.225L199.537 110.468L200.577 111.717L200.608 112.451L201.617 113.972L202.436 116.199L202.153 117.449L201.932 120.546L201.459 121.551H201.522L201.617 122.257L201.081 122.909L204.989 122.529L208.046 123.262L210.221 123.507L211.324 122.827L210.725 122.148L212.742 121.605L212.679 122.203L213.719 121.985L214.57 123.126L215.295 122.909L217.186 124.023L216.02 124.376L218.699 125.055H219.708L220.307 124.43L221.599 123.832L222.513 124.973L223.143 123.941L222.954 122.311L224.656 122.882L224.845 123.371L226.862 123.588L227.871 124.294L227.745 124.865L229.163 123.724L228.627 123.126L226.263 122.61L225.381 122.175L225.349 121.361L226.326 121.469L227.083 120.138L226.106 118.97L225.57 120.084L224.341 119.894L225.192 118.699L224.624 118.563L223.238 119.405L221.252 119.513L220.685 119.133L221.599 117.748L222.67 117.721L224.498 118.237L225.822 118.345L225.097 117.558L223.71 115.222L224.089 113.918L213.215 114.95L213.625 114.597L213.184 113.619L213.845 112.777L214.224 110.658L216.619 107.127L215.453 105.904L215.516 105.008L214.791 103.541L214.791 103.351Z" fill="#273340" stroke="white" stroke-width="0.970631" stroke-linejoin="round"/>
<path d="M182.769 144.205L181.256 139.289V140.212L182.769 144.205ZM182.423 135.567L181.351 137.306L181.225 137.876L182.423 135.567ZM183.273 134.291L184.282 133.15L183.557 133.53L183.273 134.291ZM186.835 131.52L184.471 132.579L185.133 132.471L186.835 131.52ZM187.15 131.14L187.812 130.678L187.56 130.732L187.15 131.14ZM149.77 85.5589L149.55 85.5317L148.478 111.011L142.238 110.767L132.247 110.278L128.244 110.033L129.032 111.364L129.064 111.392L132.467 114.325L134.421 116.308L137.006 117.965L138.834 120.844L139.527 123.86L141.009 124.702L142.175 125.815L143.845 126.332L146.272 127.663L147.375 128.016L148.888 126.712L149.361 125.326L150.149 123.995L152.607 123.153L153.553 123.561L156.295 123.751L158.784 125.082L160.486 125.354L160.014 126.114L160.991 126.658L161.905 127.608L162.094 128.613L162.693 129.292L164.079 132.172L165.466 133.177L166.538 134.698L167.893 135.893L168.492 136.056L168.996 139.153L170.477 139.859L170.54 140.837L170.919 140.755L173.503 143.472L174.795 143.716L176.434 144.558H178.956L180.784 145.428L182.958 145.02L181.981 144.232L181.099 141.951L180.752 139.968L180.248 139.316L180.468 137.985L179.807 137.93L178.924 136.681L179.933 137.604L181.099 137.251L181.729 135.812L180.468 134.345L182.359 134.535L183.242 133.367L183.116 132.959L183.904 132.063L183.715 132.851L184.597 132.253L184.251 131.194L185.385 131.71L186.835 131.004L185.417 129.727L186.299 130.026L187.938 130.107L190.081 129.7L192.477 128.315L193.926 127.282L194.147 126.522L195.029 125.734L194.557 124.43L194.651 123.615L196.227 123.018L196.101 124.457H197.047L196.007 125.218L200.198 123.316L200.892 123.289L201.333 121.551H201.459L201.932 120.546L202.152 117.449L202.436 116.2L201.617 113.972L200.608 112.451L200.577 111.717L199.536 110.468L198.906 105.225L198.875 104.573L198.812 103.894L198.622 101.504L196.731 101.558L196.259 101.124L196.164 101.096H196.133L194.903 100.906L193.485 100.119L191.909 99.5482L188.947 100.282L188.159 100.119L187.182 100.445L185.984 101.287L182.769 99.9828L181.761 101.178L180.279 100.716L178.703 99.847L177.852 100.472L177.033 100.499V99.9828L174.827 99.0864L173.944 99.4395L173.503 99.0049L171.076 98.7876L169.217 97.3208L168.933 97.8097L167.578 97.7554L166.317 96.7232L165.75 95.0933L165.655 85.8034L157.587 85.7219L149.96 85.5589L149.77 85.5589Z" fill="#273340" stroke="white" stroke-width="0.970631" stroke-linejoin="round"/>
<path d="M300.644 34.0547L296.106 35.5487L296.043 35.4129L293.49 36.0648L292.923 36.2006L292.986 36.4723L294.183 40.4653L294.562 40.8728L293.742 41.742L294.309 42.2038L296.138 40.6826L297.115 39.5146L297.304 39.8405L301.905 38.0749L302 37.9934L301.968 37.3415L301.779 36.7711L300.802 34.4078L300.676 34.109L300.644 34.0547Z" fill="#273340" stroke="white" stroke-width="0.970631" stroke-linejoin="round"/>
<path d="M296.39 15.2036L295.98 15.6382L295.507 15.5567L295.255 17.3495V17.3767L296.012 19.8214L295.949 20.3104L294.593 21.8587L294.94 23.2712V25.0369L294.688 26.6667L296.106 31.1215L297.398 30.7684L301.37 29.6275L303.166 27.9434V27.5087L303.261 26.8025L303.04 26.884L303.008 26.721L301.023 24.6294L300.96 24.4393L296.39 15.2036Z" fill="#273340" stroke="white" stroke-width="0.970631" stroke-linejoin="round"/>
<path d="M303.733 36.5015L303.702 35.9311L303.607 36.1484L303.733 36.5015ZM304.364 36.0669L303.954 35.3878L303.922 36.094L304.364 36.0669ZM304.175 35.2248L304.395 35.7137L304.679 36.1484L304.868 35.8224L304.584 35.3606L304.49 35.0347H304.175V35.2248ZM300.676 34.1111L300.802 34.4099L301.779 36.7731L301.968 37.3436L302 37.9955L302.063 37.914L303.576 36.8818L303.292 35.0347L303.922 34.926L302.536 33.4863L301.086 33.9753L300.676 34.1111Z" fill="#273340" stroke="white" stroke-width="0.970631" stroke-linejoin="round"/>
<path d="M296.106 31.1237L294.688 26.6689L294.94 25.0391V23.2734L294.593 21.8609L295.948 20.3126L296.011 19.8236L295.255 17.3789L294.845 17.5147L293.112 18.058L291.41 18.6284L287.502 19.8508L287.281 19.9051L288.699 22.7573L289.172 25.4465L290.843 27.7011L292.418 32.1559L292.481 32.1288L292.734 32.0473L293.458 31.8571L294.089 31.667L295.885 31.2052L296.106 31.1237Z" fill="#273340" stroke="white" stroke-width="0.970631" stroke-linejoin="round"/>
<path d="M229.636 90.4466L229.762 90.6639L230.203 90.9084L230.392 102.045L230.455 108.157L232.063 116.524L232.189 116.497L233.607 116.741L233.985 114.323L234.616 115.682L235.687 116.524L237.736 115.491L237.515 115.329L237.578 115.356L236.16 112.558L249.776 110.656L250.69 110.521V110.493L249.839 109.108L249.776 107.125L249.082 106.039L249.429 103.92L249.996 103.377L247.664 99.7909L243.441 88.7081L243.409 88.6538L242.464 88.7896L237.421 89.4959L234.899 89.7675L229.604 90.3923L229.636 90.4466Z" fill="#273340" stroke="white" stroke-width="0.970631" stroke-linejoin="round"/>
<path d="M273.918 143.743H273.855L273.886 143.77L273.918 143.743ZM273.634 143.716V143.743H273.666L273.634 143.716ZM269.064 144.123H269.033V144.15L269.064 144.123ZM278.015 142.412H277.984L278.015 142.466V142.412ZM278.866 142.222V142.167L278.803 142.249L278.866 142.222ZM278.551 142.167L278.425 142.059L278.393 142.086L278.551 142.167ZM278.456 142.385L278.078 141.977L278.299 142.33L278.456 142.385ZM281.451 140.782V140.891L281.514 140.836L281.451 140.782ZM281.892 140.51L281.986 140.374L281.86 140.483L281.892 140.51ZM281.986 140.239H281.955V140.266L281.986 140.239ZM281.703 139.75L281.671 139.723V139.777L281.703 139.75ZM281.923 139.098L281.86 139.125L281.955 139.152L281.923 139.098ZM282.049 139.098L281.986 139.043L282.018 139.125L282.049 139.098ZM281.829 139.043L281.797 139.016V139.071L281.829 139.043ZM282.995 138.853V138.826L282.932 138.935L282.995 138.853ZM281.671 138.962H281.608L281.671 138.989V138.962ZM282.333 138.636H282.238L282.207 138.663L282.333 138.636ZM279.938 138.609V138.555L279.906 138.609H279.938ZM280.221 138.527H280.127L280.221 138.69V138.527ZM279.465 138.555V138.392L279.307 138.419L279.465 138.555ZM279.024 138.283L279.181 138.419V138.364L279.024 138.283ZM283.657 138.446L283.089 138.663L283.279 138.69L283.657 138.446ZM279.244 138.201H279.055V138.256L279.244 138.201ZM284.224 136.843L284.256 136.707L284.287 136.354L284.224 136.843ZM284.256 135.322L284.13 135.05L284.066 135.159L284.256 135.322ZM276.975 136.001L276.912 136.083L277.07 136.11L276.975 136.001ZM276.376 135.757L276.093 135.838L276.313 135.865L276.376 135.757ZM275.746 135.811V135.729L275.714 135.757L275.746 135.811ZM275.084 135.784L274.895 135.892L275.147 136.001L275.084 135.784ZM275.967 135.811L275.935 135.729L275.777 135.702L275.967 135.811ZM271.838 133.149L271.649 133.23L272.027 133.339L271.838 133.149ZM271.081 132.28L270.829 131.954L270.924 132.198L271.081 132.28ZM272.058 132.823L271.617 131.954L271.302 131.872L272.058 132.823ZM270.798 131.736L270.703 131.519L270.64 131.383L270.798 131.736ZM268.182 128.721L267.614 128.368L267.835 128.558L268.182 128.721ZM282.365 126.901L280.064 123.587H279.938L282.365 126.901ZM266.448 121.604L266.354 121.577L266.448 121.632V121.604ZM266.259 121.414L266.228 121.441L266.259 121.469V121.414ZM266.039 121.143V121.115L266.007 121.143H266.039ZM266.165 121.034L266.259 121.088V121.034H266.165ZM266.354 120.925L266.228 120.952H266.259L266.354 120.925ZM266.133 120.898L266.039 120.817L266.07 120.844L266.133 120.898ZM265.912 120.599H265.849L265.944 120.627L265.912 120.599ZM266.133 120.273H266.007L265.975 120.301L266.133 120.273ZM266.259 120.328L266.102 120.192L266.165 120.219L266.259 120.328ZM265.062 119.16L264.998 119.132V119.16H265.062ZM263.706 119.16L263.612 119.051L263.643 119.187L263.706 119.16ZM252.234 118.263L253.179 117.638L252.139 118.236L252.234 118.263ZM254.125 116.959L254.22 116.878L253.841 117.014L254.125 116.959ZM242.148 115.139L238.713 116.09L240.604 115.628L242.148 115.139ZM250.69 110.522L249.776 110.657L236.16 112.559L237.578 115.357L237.673 115.384L237.326 116.498L238.335 116.117L239.438 115.275L241.329 115.221L243.504 114.542L244.985 114.732L244.638 115.194L247.349 115.982L249.681 116.959L250.217 118.046L251.95 117.72L256.048 114.841L257.56 114.895L263.738 118.915L264.998 118.698L266.322 120.219L266.574 122.637L266.165 124.158L266.354 124.918L267.457 126.82L266.953 125.326L268.371 125.299L268.497 126.385L267.74 128.069L270.356 131.166L271.333 131.193L270.514 130.242L271.523 130.351L272.121 130.025L271.869 131.764L273.225 132.687L274.139 134.806L275.368 135.458L276.944 135.811L279.118 138.201L280.253 138.718L278.74 138.799L279.433 139.478L281.923 138.772L283.152 138.174L284.287 134.752L283.72 129.428L283.594 128.884L280.568 124.538L277.984 121.387L276.534 118.807L277.763 119.703L278.015 119.54L278.551 121.795L279.938 123.506L278.582 121.224L278.646 120.138L274.58 115.873L273.603 114.542L272.311 112.287L271.428 110.386L270.735 109.707L270.577 108.837L270.546 108.81L268.371 108.702L267.52 109.272L267.047 111.364L266.606 110.386L251.73 111.988L250.658 110.549L250.69 110.522Z" fill="#273340"/>
<path d="M273.697 143.688V143.661M269.411 144.096V144.123M269.348 144.123V144.096M281.419 140.157L281.387 140.13M280.852 139.723L280.82 139.695M282.585 138.5H282.554M273.918 143.743H273.855L273.886 143.77L273.918 143.743ZM273.634 143.716V143.743H273.666L273.634 143.716ZM269.064 144.123H269.033V144.15L269.064 144.123ZM278.015 142.412H277.984L278.015 142.466V142.412ZM278.866 142.222V142.167L278.803 142.249L278.866 142.222ZM278.551 142.167L278.425 142.059L278.393 142.086L278.551 142.167ZM278.456 142.385L278.078 141.977L278.299 142.33L278.456 142.385ZM281.451 140.782V140.891L281.514 140.836L281.451 140.782ZM281.892 140.51L281.986 140.374L281.86 140.483L281.892 140.51ZM281.986 140.239H281.955V140.266L281.986 140.239ZM281.703 139.75L281.671 139.723V139.777L281.703 139.75ZM281.923 139.098L281.86 139.125L281.955 139.152L281.923 139.098ZM282.049 139.098L281.986 139.043L282.018 139.125L282.049 139.098ZM281.829 139.043L281.797 139.016V139.071L281.829 139.043ZM282.995 138.853V138.826L282.932 138.935L282.995 138.853ZM281.671 138.962H281.608L281.671 138.989V138.962ZM282.333 138.636H282.238L282.207 138.663L282.333 138.636ZM279.938 138.609V138.555L279.906 138.609H279.938ZM280.221 138.527H280.127L280.221 138.69V138.527ZM279.465 138.555V138.392L279.307 138.419L279.465 138.555ZM279.024 138.283L279.181 138.419V138.364L279.024 138.283ZM283.657 138.446L283.089 138.663L283.279 138.69L283.657 138.446ZM279.244 138.201H279.055V138.256L279.244 138.201ZM284.224 136.843L284.256 136.707L284.287 136.354L284.224 136.843ZM284.256 135.322L284.13 135.05L284.066 135.159L284.256 135.322ZM276.975 136.001L276.912 136.083L277.07 136.11L276.975 136.001ZM276.376 135.757L276.093 135.838L276.313 135.865L276.376 135.757ZM275.746 135.811V135.729L275.714 135.757L275.746 135.811ZM275.084 135.784L274.895 135.892L275.147 136.001L275.084 135.784ZM275.967 135.811L275.935 135.729L275.777 135.702L275.967 135.811ZM271.838 133.149L271.649 133.23L272.027 133.339L271.838 133.149ZM271.081 132.28L270.829 131.954L270.924 132.198L271.081 132.28ZM272.058 132.823L271.617 131.954L271.302 131.872L272.058 132.823ZM270.798 131.736L270.703 131.519L270.64 131.383L270.798 131.736ZM268.182 128.721L267.614 128.368L267.835 128.558L268.182 128.721ZM282.365 126.901L280.064 123.587H279.938L282.365 126.901ZM266.448 121.604L266.354 121.577L266.448 121.632V121.604ZM266.259 121.414L266.228 121.441L266.259 121.469V121.414ZM266.039 121.143V121.115L266.007 121.143H266.039ZM266.165 121.034L266.259 121.088V121.034H266.165ZM266.354 120.925L266.228 120.952H266.259L266.354 120.925ZM266.133 120.898L266.039 120.817L266.07 120.844L266.133 120.898ZM265.912 120.599H265.849L265.944 120.627L265.912 120.599ZM266.133 120.273H266.007L265.975 120.301L266.133 120.273ZM266.259 120.328L266.102 120.192L266.165 120.219L266.259 120.328ZM265.062 119.16L264.998 119.132V119.16H265.062ZM263.706 119.16L263.612 119.051L263.643 119.187L263.706 119.16ZM252.234 118.263L253.179 117.638L252.139 118.236L252.234 118.263ZM254.125 116.959L254.22 116.878L253.841 117.014L254.125 116.959ZM242.148 115.139L238.713 116.09L240.604 115.628L242.148 115.139ZM250.69 110.522L249.776 110.657L236.16 112.559L237.578 115.357L237.673 115.384L237.326 116.498L238.335 116.117L239.438 115.275L241.329 115.221L243.504 114.542L244.985 114.732L244.638 115.194L247.349 115.982L249.681 116.959L250.217 118.046L251.95 117.72L256.048 114.841L257.56 114.895L263.738 118.915L264.998 118.698L266.322 120.219L266.574 122.637L266.165 124.158L266.354 124.918L267.457 126.82L266.953 125.326L268.371 125.299L268.497 126.385L267.74 128.069L270.356 131.166L271.333 131.193L270.514 130.242L271.523 130.351L272.121 130.025L271.869 131.764L273.225 132.687L274.139 134.806L275.368 135.458L276.944 135.811L279.118 138.201L280.253 138.718L278.74 138.799L279.433 139.478L281.923 138.772L283.152 138.174L284.287 134.752L283.72 129.428L283.594 128.884L280.568 124.538L277.984 121.387L276.534 118.807L277.763 119.703L278.015 119.54L278.551 121.795L279.938 123.506L278.582 121.224L278.646 120.138L274.58 115.873L273.603 114.542L272.311 112.287L271.428 110.386L270.735 109.707L270.577 108.837L270.546 108.81L268.371 108.702L267.52 109.272L267.047 111.364L266.606 110.386L251.73 111.988L250.658 110.549L250.69 110.522Z" stroke="white" stroke-width="0.970631" stroke-linejoin="round"/>
<path d="M271.05 104.788L271.018 103.973L270.798 104.68L271.05 104.788ZM271.397 103.539L271.271 102.914L271.176 103.294L271.397 103.539ZM256.646 86.4258L256.237 86.5073L255.039 86.7246L250.627 87.5123L250.217 87.5938L249.776 87.6481L247.317 88.0556L246.655 88.1643L243.976 88.5989L243.409 88.6532L243.441 88.7075L247.664 99.7903L249.996 103.376L249.429 103.919L249.082 106.038L249.776 107.124L249.839 109.107L250.69 110.493V110.52L250.658 110.547L251.73 111.987L266.606 110.384L267.047 111.362L267.52 109.27L268.371 108.7L270.546 108.809L270.357 105.875L270.766 105.25L270.546 104.082L270.987 102.968L271.649 102.344L271.176 101.963L272.279 100.795H272.248L270.357 99.2742L267.772 96.0961L266.354 95.5256L260.271 91.1251L258.79 89.4953L255.922 88.4631L255.764 87.9198L256.646 86.4258Z" fill="#273340" stroke="white" stroke-width="0.970631" stroke-linejoin="round"/>
<path d="M229.131 117.855L228.974 117.882V117.909L229.131 117.855ZM232.063 117.529H231.621L232.031 117.556L232.063 117.529ZM228.407 117.801L228.281 117.909L228.312 117.936L228.407 117.801ZM231.369 117.583H230.172L231.306 117.61L231.369 117.583ZM218.226 91.6963V91.7235L216.903 93.625L217.029 95.0918L215.232 96.8031L215.705 97.292L214.507 101.638L215.075 102.562L214.76 102.752L214.791 103.35V103.54L215.516 105.007L215.453 105.903L216.619 107.125L214.224 110.657L213.846 112.775L213.184 113.617L213.625 114.595L213.215 114.948L224.089 113.916L223.71 115.22L225.097 117.556L225.822 118.344V118.317L226.988 117.176L229.447 116.714L231.716 116.931L232.063 116.551V116.524L230.455 108.157L230.392 102.046L230.203 90.9086L229.762 90.6641L229.636 90.4468H229.573L227.997 90.6369L225.223 90.9629L218.92 91.642L218.226 91.6963Z" fill="#273340" stroke="white" stroke-width="0.970631" stroke-linejoin="round"/>
<path d="M256.646 86.4259L255.764 87.9199L255.921 88.4632L258.789 89.4954L260.271 91.1252L266.353 95.5257L267.772 96.0962L270.356 99.2743L272.247 100.795L272.562 99.546L272.058 98.3508L273.413 99.22L274.17 98.7039L272.878 97.7803L274.453 97.6988L276.912 95.906L276.628 95.4442L278.141 94.4392L277.983 93.9502L279.086 93.3526L279.15 91.9673L280.883 89.1966L282.049 87.9199L282.175 87.8656L275.147 84.0355L272.531 84.4701L268.969 84.3615L267.204 83.5737L256.741 86.4259H256.646Z" fill="#273340" stroke="white" stroke-width="0.970631" stroke-linejoin="round"/>
<path d="M211.167 49.4009L211.104 49.5367L212.302 50.1887L212.68 50.8406L213.941 51.8728L213.909 52.742L213.216 54.4534L211.64 55.4312L210.221 55.6757L209.938 57.0882L210.411 57.2784L209.938 60.0491L208.772 60.6738L208.992 61.7332L208.709 61.8419L208.456 63.0371L209.465 65.4546L213.058 68.0624L213.373 69.3119L214.067 69.9366L216.336 69.828L215.926 71.6479L215.769 73.6037L217.124 74.5545L219.267 75.3694L220.402 76.13L221.032 77.6783L220.685 78.2487L222.923 79.8242L223.018 79.8514L222.828 79.6884L223.459 78.4117L225.886 78.9821L226.484 78.3845L226.012 77.1894L227.997 76.1843L227.461 75.5324L227.934 74.6088V74.5273L227.808 74.5001L227.84 72.0826L228.533 71.6479L229.731 69.2304L229.479 68.171L228.691 66.8943L229.132 65.4546L226.926 52.063L226.611 51.7642L225.791 50.1615L225.129 49.5639L224.846 47.9884V47.9341L220.591 48.4502L218.038 48.7218L211.167 49.4009Z" fill="#273340" stroke="white" stroke-width="0.970631" stroke-linejoin="round"/>
<path d="M240.037 49.9727L235.214 50.7061L234.111 50.8962L230.203 51.4395L229.384 52.0099L228.154 52.4989L227.682 52.4717L227.114 52.2272L226.925 52.0643L229.132 65.4559L228.69 66.8956L229.478 68.1723L229.73 69.2317L228.533 71.6493L227.839 72.0839L227.808 74.5014L227.934 74.5286L228.06 74.5014L228.533 73.7409H229.699L231.117 73.3334L232.882 73.9038L233.071 73.2791L234.08 72.6271L235.593 72.8173L236.412 71.4319L238.65 71.5949L238.618 70.8072L240.604 68.5526L240.289 67.5204L241.675 67.4932L243.377 66.3252L242.968 64.9942L243.031 64.9398L242.968 64.478L241.077 54.8621L240.226 50.7604L240.131 50.3258L240.037 49.9727Z" fill="#273340" stroke="white" stroke-width="0.970631" stroke-linejoin="round"/>
<path d="M221.473 82.7064L221.379 82.489L221.189 82.4347L221.063 82.7878L221.095 82.815L221.442 82.7878L221.473 82.7064ZM243.031 64.9413L242.968 64.9957L243.378 66.3267L241.676 67.4947L240.289 67.5219L240.604 68.5541L238.619 70.8087L238.65 71.5964L236.412 71.4334L235.593 72.8188L234.08 72.6286L233.071 73.2806L232.882 73.9053L231.117 73.3349L229.699 73.7424H228.533L228.06 74.5029L227.934 74.5301V74.6116L227.461 75.5352L227.997 76.1871L226.012 77.1921L226.484 78.3873L225.886 78.985L223.459 78.4145L222.828 79.6912L223.017 79.8542L223.08 79.9628L222.797 82.1903L222.671 82.2446L221.851 82.6792L221.82 82.7607L222.734 82.652L229.1 81.9186L228.785 80.8321L229.857 80.8049L242.684 79.3381L251.698 78.0342L251.824 77.9527L252.045 77.7354L254.409 76.6489L256.237 74.5844L256.489 73.8782L257.687 73.0633L259.199 71.4063L259.42 71.1347L259.325 71.1075H258.538L257.529 70.6185L255.732 68.7442L255.102 66.8428V66.7885L255.039 66.7341L253.715 66.0822L253.117 65.213L251.919 66.218L251.162 66.381L250.217 66.055L249.397 66.5983L247.696 65.9464L247.254 66.1094L245.647 64.9142L244.827 64.561L243.283 64.724L243.031 64.9413Z" fill="#273340" stroke="white" stroke-width="0.970631" stroke-linejoin="round"/>
<path d="M285.453 86.9149L285.106 87.2137L285.169 87.2681L285.453 86.9149ZM285.705 85.3394L285.548 85.5568L285.611 85.7741L285.705 85.3394ZM287.596 82.8132L287.123 83.0849L286.871 83.4108L287.596 82.8132ZM291.662 81.1019L291.473 80.9933L291.063 80.9661L291.662 81.1019ZM290.811 80.9389H290.527L290.055 81.1562L290.811 80.9389ZM291.788 81.2377L292.702 79.282L292.072 80.0969L291.788 81.2377ZM293.143 78.6572L293.553 78.1411H293.332L293.143 78.6572ZM295.791 76.5384L295.097 73.5233L295.696 75.0987L295.791 76.5384ZM291.946 69.666L291.883 69.6932L291.788 69.7204H291.82L293.553 72.2466L294.908 73.4146L291.946 69.666ZM291.378 69.829L291.126 69.8833L291.189 69.9105H291.725L291.662 69.7475L291.567 69.7747H291.473V69.829L291.41 69.8562L291.378 69.829ZM262.225 76.0223L262.067 76.4298L262.099 77.5978L261.752 77.5706L260.932 79.0103L260.018 79.0918L258.317 80.5315L257.56 80.287L256.583 81.5365L253.999 83.5466L252.738 83.8183L251.414 84.8776L251.351 85.5839L250.185 86.1272L250.217 87.3224V87.594L250.626 87.5125L255.039 86.7248L256.236 86.5075L256.646 86.426H256.741L267.204 83.5738L268.969 84.3615L272.531 84.4702L275.147 84.0356L282.175 87.8656L282.301 87.7842L285.548 86.6433L285.579 85.1493L286.745 83.3293L288.006 82.2971L290.622 80.8031L290.969 80.2598L291.662 80.5315L291.977 78.7387L291.599 79.3634L290.275 79.7437L289.015 79.7709L290.559 78.793L290.086 78.3584L290.622 77.3805L287.659 76.973L287.533 76.8372L290.055 76.4298L290.874 76.7829L291.914 76.7014L292.765 76.1581L293.395 75.0987L293.963 74.9629L293.868 73.4689L293.143 72.8713L292.418 73.4418L292.576 74.8814L292.04 73.1158L291.63 73.0343L288.51 74.148L289.897 72.98L289.96 72.5182L291.41 72.2194L291.82 71.2958L292.797 71.7848L291.757 70.4538L291.032 69.9105L278.425 73.0071L270.388 74.7728L262.256 76.0766L262.225 76.0223Z" fill="#273340" stroke="white" stroke-width="0.970631" stroke-linejoin="round"/>
<path d="M262.067 51.7645L261.279 48.8308L261.122 48.2332L260.239 44.8921L259.105 45.5169L256.678 47.1195L255.102 48.7765L253.873 48.9395L251.603 50.0532L250.343 49.4013L246.529 49.021L244.512 49.4556L242.526 49.863L240.446 50.2433L240.131 50.3248L240.226 50.7594L241.077 54.8611L242.968 64.4771L243.031 64.9389L243.283 64.7216L244.827 64.5586L245.647 64.9117L247.254 66.1069L247.695 65.9439L249.397 66.5958L250.217 66.0526L251.162 66.3785L251.919 66.2156L253.116 65.2105L253.715 66.0797L255.039 66.7317L255.102 66.786L256.457 66.2156L256.93 65.3192L256.552 64.3956L257.623 62.9831L258.411 62.8744L258.317 61.6792L259.609 60.1581L259.829 60.3754L260.996 59.6148L262.004 58.3109L262.162 52.3621L262.225 52.3349L262.067 51.7645Z" fill="#273340" stroke="white" stroke-width="0.970631" stroke-linejoin="round"/>
<path d="M251.698 78.0335L242.684 79.3374L229.856 80.8042L228.785 80.8314L229.1 81.9179L222.733 82.6513L221.819 82.76V82.7872L221.567 83.0588L221.441 83.0316V82.8143V82.7871L221.094 82.8143L221.126 82.8415L221.315 83.6021L220.685 84.2812L220.622 85.5307V85.748V85.7752L219.676 87.3507L219.865 88.4644L218.983 89.6596L219.298 90.7461L218.163 91.6425L218.226 91.6969L218.92 91.6425L225.223 90.9634L227.997 90.6375L229.573 90.4473H229.636L229.604 90.393L234.899 89.7682L237.42 89.4966L242.463 88.7903L243.409 88.6545L243.976 88.6002L246.655 88.1656L247.317 88.0569L249.775 87.6495L250.217 87.5951V87.3235L250.185 86.1283L251.351 85.585L251.414 84.8788L252.738 83.8194L253.999 83.5478L256.583 81.5377L257.56 80.2881L258.316 80.5326L260.018 79.0929L260.932 79.0114L261.752 77.5718L262.099 77.5989L262.067 76.4309L262.225 76.0234L261.72 76.1049L259.924 76.5395L257.781 76.9198L252.391 77.8706L251.824 77.9521L251.698 78.0335Z" fill="#273340" stroke="white" stroke-width="0.970631" stroke-linejoin="round"/>
<path d="M291.473 69.7745H291.568L291.662 69.7473L291.599 69.6115L291.473 69.7745ZM290.401 66.7322V66.868L290.559 66.7865L290.401 66.7322ZM290.78 66.1074L290.717 66.4605L290.622 66.5964L290.78 66.1074ZM291.063 65.4012L291.095 65.2382L291.032 65.4012H291.063ZM291.252 64.6677L291.347 64.4776L291.189 64.9665L291.252 64.6677ZM291.284 64.2603L291.41 63.6627L291.252 63.7985L291.284 64.2603ZM291.851 61.5711L291.914 61.3266L291.883 61.3809L291.851 61.5711ZM291.725 60.9463L291.315 61.0821L290.685 61.3266L290.464 61.5711L290.559 61.5983L289.803 65.6456L290.086 66.2976L290.527 64.6134L291.347 62.4132L291.725 60.9735V60.9463ZM292.355 60.729L292.261 60.7562L292.229 60.8648L292.072 61.7069L292.198 61.4081L292.355 60.729ZM259.42 71.1327L259.199 71.4043L257.686 73.0613L256.489 73.8762L256.237 74.5825L254.409 76.6469L252.045 77.7334L251.824 77.9508L252.391 77.8693L257.781 76.9185L259.924 76.5382L261.721 76.1036L262.225 76.0221L262.256 76.0765L270.388 74.7726L278.425 73.007L291.032 69.9103L290.937 69.7745L290.906 69.693L291.126 69.8832L291.378 69.8288L291.347 69.8017L291.126 68.8781L291.284 68.9053L291.788 69.7202L291.883 69.693L291.946 69.6658L291.82 69.4485L290.527 67.7372L288.92 67.9817L288.195 68.4978L287.502 67.9545L285.138 67.2754L283.499 67.2211L286.682 66.9766L288.447 68.0088L288.952 67.3297L287.533 65.7814L288.542 65.8358L288.006 64.5862L286.745 64.6406L283.751 62.5489H283.373L287.596 64.3417L287.313 63.0922L287.596 62.6848L285.453 61.9785L283.594 61.8699L282.68 61.1636L281.923 61.5711L281.64 59.6968L281.955 59.7511L281.892 58.2299L281.829 58.1756L281.766 58.2028L281.703 58.1756L281.545 58.0669L281.45 57.9855L280.442 57.6052L279.402 56.9532L277.952 56.6273L277.857 56.6001V56.6273L277.668 57.7681L274.737 56.6816L274.8 58.2571L273.193 60.892L272.216 61.8155L271.585 63.4182L269.663 62.8477L268.717 66.542L267.961 67.7915L267.835 69.4214L267.268 70.2091L265.156 70.7524L263.422 71.9204L262.603 72.0291L261.815 72.6267L259.83 72.0019L259.483 71.1598L259.42 71.1327Z" fill="#273340"/>
<path d="M290.969 65.7814L290.937 65.5641M291.473 69.7745H291.568L291.662 69.7473L291.599 69.6115L291.473 69.7745ZM290.401 66.7322V66.868L290.559 66.7865L290.401 66.7322ZM290.78 66.1074L290.717 66.4605L290.622 66.5964L290.78 66.1074ZM291.063 65.4012L291.095 65.2382L291.032 65.4012H291.063ZM291.252 64.6677L291.347 64.4776L291.189 64.9665L291.252 64.6677ZM291.284 64.2603L291.41 63.6627L291.252 63.7985L291.284 64.2603ZM291.851 61.5711L291.914 61.3266L291.883 61.3809L291.851 61.5711ZM291.725 60.9463L291.315 61.0821L290.685 61.3266L290.464 61.5711L290.559 61.5983L289.803 65.6456L290.086 66.2976L290.527 64.6134L291.347 62.4132L291.725 60.9735V60.9463ZM292.355 60.729L292.261 60.7562L292.229 60.8648L292.072 61.7069L292.198 61.4081L292.355 60.729ZM259.42 71.1327L259.199 71.4043L257.686 73.0613L256.489 73.8762L256.237 74.5825L254.409 76.6469L252.045 77.7334L251.824 77.9508L252.391 77.8693L257.781 76.9185L259.924 76.5382L261.721 76.1036L262.225 76.0221L262.256 76.0765L270.388 74.7726L278.425 73.007L291.032 69.9103L290.937 69.7745L290.906 69.693L291.126 69.8832L291.378 69.8288L291.347 69.8017L291.126 68.8781L291.284 68.9053L291.788 69.7202L291.883 69.693L291.946 69.6658L291.82 69.4485L290.527 67.7372L288.92 67.9817L288.195 68.4978L287.502 67.9545L285.138 67.2754L283.499 67.2211L286.682 66.9766L288.447 68.0088L288.952 67.3297L287.533 65.7814L288.542 65.8358L288.006 64.5862L286.745 64.6406L283.751 62.5489H283.373L287.596 64.3417L287.313 63.0922L287.596 62.6848L285.453 61.9785L283.594 61.8699L282.68 61.1636L281.923 61.5711L281.64 59.6968L281.955 59.7511L281.892 58.2299L281.829 58.1756L281.766 58.2028L281.703 58.1756L281.545 58.0669L281.45 57.9855L280.442 57.6052L279.402 56.9532L277.952 56.6273L277.857 56.6001V56.6273L277.668 57.7681L274.737 56.6816L274.8 58.2571L273.193 60.892L272.216 61.8155L271.585 63.4182L269.663 62.8477L268.717 66.542L267.961 67.7915L267.835 69.4214L267.268 70.2091L265.156 70.7524L263.422 71.9204L262.603 72.0291L261.815 72.6267L259.83 72.0019L259.483 71.1598L259.42 71.1327Z" stroke="white" stroke-width="0.970631" stroke-linejoin="round"/>
<path d="M225.57 31.6652L224.782 32.5072L224.309 33.7296L224.53 34.4087L225.57 31.6652ZM207.479 25.2817L207.952 24.7113L207.605 24.9829L207.479 25.2817ZM208.204 24.3853L208.046 24.2223L207.7 24.4125L208.204 24.3853ZM201.333 25.9065L200.608 26.6127L200.955 29.8724L198.938 31.4478L198.56 32.969L199.663 33.8383L199.348 37.5868L200.514 38.3474L201.27 38.4017L203.666 39.6513L205.178 41.0095L207.101 41.8515L207.542 43.9431V44.0789L208.456 45.0297L208.204 45.7631L208.519 47.3657L209.465 48.4795L211.198 49.2672L211.167 49.403L218.037 48.7239L220.59 48.4523L224.845 47.9362L224.719 47.5287V46.252L223.868 44.8939L223.648 43.1825L224.057 41.2811L223.837 39.8143L224.593 37.9943L224.309 37.6955L224.372 36.0113L224.782 34.7346L224.309 34.3L223.395 34.5717L222.891 35.7125L221.694 36.3101L222.072 34.8705L223.143 33.6481L223.206 33.1048L223.238 33.0777L221.725 31.7738V29.9267L220.023 28.7315L217.691 28.5957L215.295 28.0524L210.127 26.6942L209.118 26.2053L209.024 26.2867L207.416 26.0966L206.88 26.3682L207.101 24.3853L204.517 25.5262L201.365 25.9608L201.333 25.9065ZM207.511 24.4668L207.448 24.2766L207.227 24.3581L207.511 24.4668ZM206.376 24.2766L206.471 24.1137L206.408 24.0593L206.376 24.2766ZM208.677 23.8149L208.582 23.4346L208.488 23.8964L208.677 23.8149Z" fill="#273340" stroke="white" stroke-width="0.970631" stroke-linejoin="round"/>
<path d="M268.087 56.5483L263.612 57.499L262.225 52.3379L262.162 52.3651L262.004 58.3139L260.996 59.6178L259.83 60.3783L259.609 60.161L258.317 61.6822L258.412 62.8774L257.624 62.9861L256.552 64.3986L256.93 65.3221L256.457 66.2185L255.102 66.789V66.8433L255.733 68.7447L257.529 70.619L258.538 71.108H259.326L259.42 71.1352L259.483 71.1623L259.83 72.0044L261.815 72.6292L262.603 72.0316L263.423 71.9229L265.156 70.7549L267.268 70.2116L267.835 69.4239L267.961 67.794L268.718 66.5445L269.663 62.8503L271.586 63.4207L272.216 61.818L273.193 60.8945L274.801 58.2596L274.738 56.6841L277.669 57.7707L277.858 56.6298V56.6026L276.944 55.2444L275.053 55.0543L273.95 55.7877V56.331L273.004 56.5211L271.617 57.3632L270.892 57.499L269.443 59.2646L268.718 56.4125L268.087 56.5483Z" fill="#273340" stroke="white" stroke-width="0.970631" stroke-linejoin="round"/>
<path d="M286.619 52.0647L286.745 52.4721L289.361 58.9099L292.355 58.1493L292.324 58.095H292.387L292.481 58.1222L292.544 58.095L292.481 57.9864L291.725 56.2479L288.037 53.2327L288.195 51.1411H287.438L286.871 51.5214L286.619 52.0647Z" fill="#273340" stroke="white" stroke-width="0.970631" stroke-linejoin="round"/>
<path d="M281.545 58.0697L281.703 58.1783L281.766 58.2055L281.829 58.1783L281.892 58.2055L282.113 58.3141L282.176 58.3956V58.5858L282.239 58.6944L282.648 58.0425L282.207 57.8252L281.671 57.8524L281.545 58.0697Z" fill="#273340" stroke="white" stroke-width="0.970631" stroke-linejoin="round"/>
<path d="M292.387 60.62L292.608 59.1532L292.419 60.2397L292.293 60.7015L292.261 60.7559L292.356 60.7287L292.387 60.62ZM292.545 58.0938L292.482 58.121L292.545 58.284V58.6099V58.0938ZM268.718 56.4097L269.442 59.2619L270.892 57.4962L271.617 57.3604L273.004 56.5183L273.949 56.3282V55.7849L275.053 55.0515L276.944 55.2416L277.858 56.5998L277.952 56.627L279.402 56.953L280.442 57.6049L281.451 57.9852L281.545 58.0667L281.671 57.8494L282.207 57.8222L282.648 58.0395L282.239 58.6914V58.7186L281.64 60.2941L283.594 61.3806L285.548 61.4621L286.84 61.9782L286.304 60.6744L284.634 60.1854L284.224 59.0717L285.264 60.2669L286.115 60.3756L285.359 59.7236L284.76 57.795L284.918 56.6813L284.256 55.459L284.949 54.97L285.453 53.3945L285.264 55.7306L285.8 56.5183L286.304 55.5948L286.588 57.1159L286.052 58.2296L287.596 58.7186L286.273 59.0989L286.966 60.2126L288.101 60.5386L288.731 59.5878L288.668 60.9188L289.74 60.8917L290.433 61.5708H290.465L290.685 61.3263L291.316 61.0818L291.725 60.946L291.694 60.8917L292.513 58.8001V58.7186L292.356 58.1753V58.1481L289.361 58.9087L286.746 52.4709L286.619 52.0635L286.084 52.1993L283.846 52.7969L271.523 55.7577L269.285 56.2738L268.718 56.4097Z" fill="#273340" stroke="white" stroke-width="0.970631" stroke-linejoin="round"/>
<path d="M294.089 51.9562L293.931 51.6302V51.9562H294.089ZM294.404 50.9511L294.499 50.1362L294.31 50.8424L294.404 50.9511ZM293.112 42.6119L289.803 41.9056L289.235 41.7698L288.699 41.6611L287.376 44.1874L287.943 44.785L287.912 46.6049L288.51 46.6864L289.74 49.4571L289.676 49.5386L288.132 51.4944L288.29 52.9884L292.009 54.0749L292.04 55.3244L292.891 54.2922L293.017 52.7982L293.9 52.2821L293.553 51.1684L294.215 49.8374V46.9309L293.994 45.9802L292.513 46.0073L292.891 44.7035L293.112 42.6119Z" fill="#273340" stroke="white" stroke-width="0.970631" stroke-linejoin="round"/>
<path d="M293.017 44.8143L292.544 45.3848L292.418 45.5477L293.017 44.8143ZM297.367 43.4833L298.942 42.2881V42.2338L297.367 43.4833ZM293.238 44.3254V43.4018L293.143 43.8908L293.238 44.3254ZM300.55 39.9792L300.172 39.8977L300.109 40.1422L300.55 39.9792ZM301.401 39.4903L301.369 39.7619L301.432 39.5989L301.401 39.4903ZM300.518 39.5174L298.407 41.2016L295.16 42.3968L294.309 43.0215L294.246 43.6191L293.364 44.2439L293.49 45.0588L294.845 44.597L296.831 43.2117L299.037 42.2066L302.378 39.4903L300.014 41.0386L299.258 41.3102L300.518 39.5174ZM301.495 38.3766L301.621 38.2136L301.243 38.5939L301.495 38.3766ZM266.07 37.3715L265.566 37.3172L265.944 37.7518L266.07 37.3715ZM276.534 29.0594L276.597 28.7606L276.344 29.0323L276.534 29.0594ZM276.691 27.1036L276.565 27.158L276.407 27.4568L276.691 27.1036ZM263.359 42.5326L263.58 43.3475L265.25 43.7006L274.832 41.446L284.476 38.947L286.241 40.115L286.588 40.7941L288.636 41.5547L288.699 41.6634L289.235 41.772L289.802 41.9078L293.112 42.6141L293.049 42.4783L293.332 43.592L293.963 43.4562L294.309 42.2338V42.2066L293.742 41.7448L294.562 40.8756L294.183 40.4681L292.986 36.4751L292.923 36.2035L292.765 36.122L292.67 34.9268L292.576 33.6229L292.481 32.2104V32.1289L292.418 32.1561L290.842 27.7012L289.172 25.4467L288.699 22.7575L287.281 19.9053L287.092 19.9868L280.505 21.8882L279.181 23.1106L277.7 25.5553L277.763 26.0986L275.809 28.652L277.006 29.0051L277.353 30.9337L275.966 32.5092L271.806 34.6823L271.018 34.4107L267.929 34.791L265.061 36.285L265.219 37.0727L266.227 37.8333L265.66 40.2237L263.391 42.5054L263.359 42.5326Z" fill="#273340" stroke="white" stroke-width="0.970631" stroke-linejoin="round"/>
<path d="M288.636 41.5535L286.588 40.7929L286.241 40.1138L284.476 38.9458L274.832 41.4449L265.25 43.6994L263.58 43.3463L263.359 42.5314L262.823 42.8845L261.972 43.4006L260.428 44.7588L260.239 44.8946L261.121 48.2358L261.279 48.8334L262.067 51.767L262.225 52.3375L263.611 57.4986L268.087 56.5478L268.717 56.412L269.284 56.2762L271.522 55.7601L283.846 52.7993L286.083 52.2017L286.619 52.0658L286.871 51.5226L287.439 51.1423H288.195L288.289 50.8978L289.519 49.7026L289.645 49.5125L289.739 49.4581L288.51 46.6874L287.911 46.6059L287.943 44.786L287.375 44.1884L288.699 41.6622L288.636 41.5535Z" fill="#273340" stroke="white" stroke-width="0.970631" stroke-linejoin="round"/>
<path d="M303.828 27.0747H303.796L303.859 27.1019L303.828 27.0747ZM306.16 21.2889L305.908 20.9629V21.1259L306.16 21.2889ZM305.719 20.9901V20.7184L305.687 20.5554L305.719 20.9901ZM306.853 19.8492L306.79 19.822L306.822 19.9035L306.853 19.8492ZM310.005 18.491L309.942 18.0836L309.816 18.2737L310.005 18.491ZM309.217 18.654L309.249 18.3552L308.87 18.4095L309.217 18.654ZM310.383 17.7576H310.257V17.8119L310.383 17.7576ZM308.807 18.165L308.524 18.1107L308.492 18.3552L308.807 18.165ZM310.415 17.323L310.698 17.5131L310.604 17.2958L310.415 17.323ZM309.564 17.3501L309.28 17.8119L309.658 17.6489L309.564 17.3501ZM308.209 17.3773L308.083 17.5403L308.177 17.7847L308.209 17.3773ZM310.068 16.4809L310.037 16.2636L309.942 16.3994L310.068 16.4809ZM309.911 16.5896L309.627 16.3722V16.5624L309.911 16.5896ZM308.146 17.2143L308.083 16.9155L307.956 17.16L308.146 17.2143ZM311.14 16.2636L310.667 16.8612L310.635 16.4266L311.14 16.2636ZM313.44 14.4436L313.22 14.172L313.094 14.2263L313.44 14.4436ZM314.291 13.2213L314.102 13.1398L314.071 13.2213H314.291ZM314.701 11.1025H314.418L314.733 11.184L314.701 11.1025ZM315.174 11.3741L315.079 10.8852L314.827 10.858L315.174 11.3741ZM314.67 10.9395L314.607 10.4234L314.386 10.7765L314.67 10.9395ZM296.39 15.2042L300.96 24.4398L301.023 24.63L303.008 26.7216V26.6944L303.323 26.6129L303.386 25.0646L303.891 24.5213L304.206 23.0816L303.922 22.8372L304.458 21.4247L306.286 20.6912L307.484 19.4417L307.925 17.2686L309.847 17.16L309.595 16.0463L311.991 15.2585L312.148 14.0362L312.716 14.1448L314.291 13.0311L314.985 11.5914L313.377 10.2061L311.676 9.90728L311.045 8.79357V8.14164L310.005 8.41328L308.839 8.06015V6.94644L305.687 1.07909L303.386 0.046875L300.834 1.894L300.14 1.78535L299.541 0.834621L298.722 1.10626L297.556 6.10437L297.965 7.73419L298.312 11.0482L297.398 13.6015L298.028 14.009L297.272 15.2585L296.453 15.1499L296.39 15.2042Z" fill="#273340" stroke="white" stroke-width="0.970631" stroke-linejoin="round"/>
<path d="M230.172 32.6175L230.014 32.4002L229.982 32.6719L230.172 32.6175ZM230.676 32.1286L230.298 31.694L230.235 31.8841L230.676 32.1286ZM230.991 30.1728L230.676 29.9283V29.9827L230.991 30.1728ZM230.203 51.4419L234.111 50.8987L235.214 50.7085L240.036 49.9751L240.131 50.3282L240.446 50.2467L242.526 49.8664L244.512 49.459L246.529 49.0244L246.498 48.9429L247.538 47.1772L247.443 45.7104L248.609 43.1842L249.523 43.646L249.87 43.0755L249.775 40.9024L248.924 39.5443L247.664 36.6649L246.561 35.6055L245.993 35.4697L243.945 36.6921L244.165 36.9365L243.094 38.675L242.054 38.512L241.738 36.6921L242.18 36.5563L243.094 34.7363L243.188 31.531L241.77 28.8146L238.618 28.3528L238.303 27.9454L235.372 27.212L234.048 28.6245L234.174 29.8468L233.166 30.9334L233.386 32.6175L232.409 33.2151V31.0964L231.527 32.699L230.487 34.1115L229.793 34.5733L230.14 36.0673L229.699 37.6156L229.951 39.5443L229.636 40.495L231.905 44.2436L232.189 45.6832L231.905 48.3453L230.392 51.3333L230.203 51.4419ZM236.948 26.9675L236.128 27.0218L236.633 27.3478L236.948 26.9675ZM232.157 27.6737H231.905L232.189 27.7824L232.157 27.6737ZM237.673 24.224L237.358 23.7893L237.231 23.8165L237.673 24.224ZM209.118 26.2069L210.126 26.6959L215.295 28.054L217.691 28.5973L220.023 28.7331L221.725 29.9283V31.7755L223.238 33.0793V33.0521L224.467 29.9826L225.948 29.0862L227.083 27.9997L227.272 28.9776L228.438 27.4293L231.243 26.5057L231.464 26.1254L234.3 26.4242L235.403 26.9131L235.939 25.7179L236.443 25.9896L238.65 25.6908L238.114 24.9302L237.137 24.4413L237.326 22.6756L235.403 23.5992L233.638 23.409L233.071 22.241L233.26 21.8607L230.865 22.8386L229.321 22.9201L226.547 24.3869L226.232 24.9302L224.53 24.5771L223.458 24.9845L221.315 23.3819L216.556 22.1323L216.461 21.6434L213.404 24.1696L211.671 24.5499L209.212 26.1526L209.118 26.2069ZM220.275 20.0408L216.588 21.6162L217.817 22.6485L218.289 21.6162L219.55 20.2852L220.275 20.0408ZM216.146 16.3193L213.625 17.8133L213.499 18.5468L215.484 17.2972L216.146 16.3193Z" fill="#273340" stroke="white" stroke-width="0.970631" stroke-linejoin="round"/>
<path d="M29.2796 145.89L29.122 145.944L29.248 145.971L29.2796 145.89ZM29.8784 145.591V145.672L29.9414 145.645L29.8784 145.591ZM30.1936 145.727V145.672L30.162 145.699L30.1936 145.727ZM30.1305 145.672V145.645H30.0675L30.1305 145.672ZM5.54696 127.826L5.51544 128.016L5.57848 128.559L5.54696 127.826ZM5.38937 127.092L5.42089 127.337L5.4524 127.255L5.38937 127.092ZM30.1305 145.346L30.1621 145.183L30.036 145.238L30.1305 145.346ZM33.7235 146.677L33.692 146.65L33.755 146.759L33.7235 146.677ZM31.3912 145.727L31.0445 145.455V146.107L31.3912 145.727ZM32.1792 146.324L32.1476 146.134L31.6118 146.107L32.1792 146.324ZM34.0702 146.704L34.0387 146.759H34.1017L34.0702 146.704ZM34.1963 146.732H34.1332L34.2593 146.759L34.1963 146.732ZM34.5745 146.84H34.543H34.5114H34.5745ZM6.74462 128.423L6.87069 128.45L6.96524 128.423H6.74462ZM33.8811 146.46L33.629 146.433L33.7235 146.514L33.8811 146.46ZM5.04268 126.305L4.60144 126.142L4.56992 126.223L5.04268 126.305ZM34.669 146.514L34.606 146.487V146.514H34.669ZM36.5916 146.84L35.3624 146.922L35.0788 147.03L36.5916 146.84ZM2.80494 122.04H2.45825L2.52129 122.121L2.80494 122.04ZM40.4052 148.09V147.981H40.3422L40.4052 148.09ZM42.0441 148.117L42.1071 148.063L42.0441 148.008V148.117ZM43.2733 148.416L43.3363 148.389H43.3048L43.2733 148.416ZM42.2647 147.927L42.2332 147.818H42.1702L42.2647 147.927ZM44.3764 148.334L44.3449 148.361H44.3764V148.334ZM2.99405 120.655L2.52129 120.709L3.12012 121.171L2.99405 120.655ZM42.706 147.927L42.769 147.764H42.7375L42.706 147.927ZM48.0324 147.519L48.064 147.465L48.0009 147.438L48.0324 147.519ZM47.2445 147.275L46.1414 148.117L46.9293 148.063L47.8433 147.438L47.2445 147.275ZM49.2301 147.574L49.0095 147.519L49.167 147.628L49.2301 147.574ZM49.6713 147.601L49.3246 147.519L49.2616 147.547L49.6713 147.601ZM48.4737 147.221H48.127L48.7258 147.356L48.4737 147.221ZM49.9235 147.492L49.8919 147.438L49.7659 147.465L49.9235 147.492ZM48.9779 147.166L48.8519 147.112V147.411L48.9779 147.166ZM53.0122 147.845L52.9806 147.818H52.9176L53.0122 147.845ZM53.0752 147.818V147.791L53.0122 147.764L53.0752 147.818ZM52.5394 147.655L52.6024 147.764V147.737L52.5394 147.655ZM52.8231 147.655L52.5394 147.574L52.8861 147.791L52.8231 147.655ZM56.9834 147.791L56.9203 147.682H56.8888L56.9834 147.791ZM90.8961 145.971L90.8331 145.917L90.8646 145.971H90.8961ZM52.697 146.813V146.786L52.6655 146.813H52.697ZM91.8101 145.482L91.9047 145.591H91.9677L91.8101 145.482ZM57.3616 147.519L57.33 147.547V147.628L57.3616 147.519ZM53.4534 147.03L53.5164 146.813H53.4849L53.4534 147.03ZM93.6381 144.857L93.3545 144.993L93.6066 145.102L93.6381 144.857ZM51.6569 146.297L50.869 146.433L50.1756 147.221L51.6569 146.297ZM57.2985 147.329L57.1094 147.465L57.2985 147.438V147.329ZM93.6381 144.722L93.5751 144.613L93.5435 144.667L93.6381 144.722ZM54.2729 146.623L54.0522 146.596L54.2729 146.786V146.623ZM91.558 145.075L91.4949 145.129L91.558 145.319V145.075ZM54.7771 146.596L54.6826 146.623L54.8087 146.704L54.7771 146.596ZM57.1094 147.166H57.0149L56.9519 147.112L57.1094 147.166ZM54.525 146.596L54.3674 146.514L54.4305 146.596H54.525ZM56.6367 146.895L56.353 146.976L56.1639 147.411L56.6367 146.895ZM90.8646 144.993V145.183L90.9906 145.047L90.8646 144.993ZM52.9176 146.025L53.1698 145.971H53.1382L52.9176 146.025ZM52.6024 145.862L52.5394 145.808V145.835L52.6024 145.862ZM90.8646 144.803L90.8015 144.776L90.77 144.857L90.8646 144.803ZM56.29 146.433L56.227 146.406L56.1639 146.487L56.29 146.433ZM90.5494 144.857L90.5809 144.722L90.5179 144.694L90.5494 144.857ZM90.2973 144.722L90.2027 144.83L90.3603 144.857L90.2973 144.722ZM57.6137 146.053L57.5507 145.998H57.5192L57.6137 146.053ZM90.2027 144.233L90.4549 144.314L90.5494 144.205L90.2027 144.233ZM90.5809 144.042L90.4864 144.097L90.644 144.178L90.5809 144.042ZM89.856 144.205L89.793 144.097L89.73 144.151L89.856 144.205ZM93.0078 143.2L92.598 144.205L93.0078 143.988V143.2ZM90.2342 143.581L89.9506 143.825L90.0136 144.097L90.2342 143.581ZM60.8915 145.754V145.645L60.86 145.699L60.8915 145.754ZM89.8875 143.309L90.8015 144.504L92.8502 145.618L92.3774 144.667L90.4233 143.228L89.8875 143.309ZM59.6308 145.319L59.5993 145.238L59.5363 145.265L59.6308 145.319ZM90.9591 142.847L90.8331 143.255L91.0537 143.119L90.9591 142.847ZM91.621 142.847L91.5895 143.119L91.8731 143.2L91.621 142.847ZM60.6394 144.966L60.4818 144.939L60.3242 144.993L60.6394 144.966ZM63.8857 145.183L63.7596 145.373L63.8226 145.21L63.8857 145.183ZM64.3584 145.21L64.0748 145.238L64.2324 145.401L64.3584 145.21ZM45.2589 141.734L45.5741 141.869L45.511 141.815L45.2589 141.734ZM57.8659 144.396H57.8974V144.368L57.8659 144.396ZM90.4549 142.304L90.6124 142.82L90.9276 142.657L90.4549 142.304ZM89.0996 142.521L89.2572 143.771L89.5724 143.499L89.0996 142.521ZM89.2572 142.114L89.9821 142.983L89.8875 142.413L89.2572 142.114ZM87.0195 142.331L86.8304 142.847L87.0825 142.494L87.0195 142.331ZM64.7997 143.716L64.7366 143.635L64.7997 143.744V143.716ZM87.0825 141.924L88.3432 143.716L88.1541 142.494L87.0825 141.924ZM66.5647 142.874L66.4701 142.956L66.6277 143.01L66.5647 142.874ZM66.1549 142.929L66.1865 142.847H66.0604L66.1549 142.929ZM65.8398 142.929L65.0203 143.39L64.0117 144.531L64.516 144.993L66.8483 143.499L65.8398 142.929ZM85.7272 141.163L85.5066 141.054V141.217L85.7272 141.163ZM65.6507 142.603L65.6822 142.711L65.9028 142.82L65.6507 142.603ZM86.3261 140.647L85.6957 140.919L86.2946 141.082L86.3261 140.647ZM85.9164 140.647L85.8533 140.593L85.8218 140.647H85.9164ZM87.8389 140.212L87.5868 140.131L87.5237 140.294L87.8389 140.212ZM86.4837 140.402L86.263 140.375V140.43L86.4837 140.402ZM87.177 140.185L88.4693 141.815L88.1226 140.321L87.177 140.185ZM66.3755 141.951L65.6191 142.44L65.9658 142.766L66.9744 142.114L66.3755 141.951ZM57.8028 140.919L57.7713 140.891V140.919H57.8028ZM57.4561 140.783L57.4246 140.647V140.701L57.4561 140.783ZM67.132 141.136L67.0689 141.163V141.19L67.132 141.136ZM66.8168 141.082H66.7853L66.7222 141.163L66.8168 141.082ZM67.5732 140.864L67.4787 140.81V140.837L67.5732 140.864ZM67.8254 140.837L67.7308 140.783V140.81L67.8254 140.837ZM67.4156 140.756H67.2896V140.783L67.4156 140.756ZM73.6876 140.212L73.7191 140.131L73.6561 140.185L73.6876 140.212ZM75.6102 139.343L75.9884 138.936L75.8623 139.017L75.6102 139.343ZM71.765 139.289L71.8911 139.207L71.9226 139.099L71.765 139.289ZM71.765 138.99L71.639 139.071L71.8596 139.017L71.765 138.99ZM66.5962 138.99L66.5646 138.881H66.5331L66.5962 138.99ZM71.639 138.963L71.5129 139.071L71.4499 139.18L71.639 138.963ZM75.1059 138.637H75.1374H75.1689H75.1059ZM75.2635 138.637L75.2004 138.61V138.637H75.2635ZM74.8853 138.61L74.9168 138.637V138.61H74.8853ZM72.3008 138.773L72.4269 138.664L72.2693 138.773H72.3008ZM72.679 138.528L71.9226 139.588L72.8997 138.61L72.679 138.528ZM71.702 138.664L71.6074 138.555L71.5759 138.61L71.702 138.664ZM74.0973 138.42L74.0343 138.392L74.0658 138.42H74.0973ZM74.9168 138.474V138.284L74.8537 138.365L74.9168 138.474ZM51.783 136.382L50.2702 136.328L51.3102 137.279L51.783 136.382ZM73.3094 138.311L73.3724 138.501L73.53 138.284L73.3094 138.311ZM72.0487 138.284L71.9541 138.881L72.1117 138.501L72.0487 138.284ZM71.7335 137.903L71.765 137.985L71.8281 137.958L71.7335 137.903ZM71.5759 138.012L71.5129 137.849L71.4183 137.903L71.5759 138.012ZM73.0572 137.686V137.577L72.9627 137.632L73.0572 137.686ZM71.639 137.523V137.795L71.7335 137.605L71.639 137.523ZM52.7915 133.829L52.8546 133.666L52.8231 133.693L52.7915 133.829ZM52.8861 133.557L52.8546 133.53L52.823 133.557H52.8861ZM55.0293 132.145L54.9032 132.09V132.118L55.0293 132.145ZM54.8402 132.036V131.982L54.7771 132.036H54.8402ZM49.7974 130.759L49.7344 130.624L49.7028 130.542L49.7974 130.759ZM50.2702 130.27H50.3017L50.3332 130.298L50.2702 130.27ZM49.4192 130.135L49.167 129.863L49.3562 130.08L49.4192 130.135ZM48.9149 129.7H48.8519L48.9464 129.727L48.9149 129.7ZM57.267 131.52L56.9203 131.547L57.1094 131.629L57.267 131.52ZM48.5682 128.885L48.3161 129.7L49.104 129.809L50.1441 130.732L50.7744 130.488L48.5682 128.885ZM54.0838 129.211V129.157V129.184V129.211ZM52.5079 126.332L52.4449 126.305L52.4764 126.332H52.5079ZM53.4219 126.603L53.5164 126.576H53.4849L53.4219 126.603ZM54.0522 126.44H54.1468L54.4305 126.332L54.0522 126.44ZM55.1869 126.142L55.2499 126.087L55.1554 126.142H55.1869ZM55.3445 126.114L55.5336 126.033L55.376 126.06L55.3445 126.114ZM55.8172 125.951L55.6596 125.979V126.006L55.8172 125.951ZM76.0514 121.035L75.9253 120.953L75.7047 120.872L76.0514 121.035ZM59.5363 120.437L59.8199 120.111L59.6623 120.22L59.5363 120.437ZM59.9145 120.057L60.0406 119.894L59.9775 119.948L59.9145 120.057ZM60.1036 119.84L60.3242 119.677L60.1981 119.731L60.1036 119.84ZM70.0316 119.894L70.1892 120.03H70.2837L70.0316 119.894ZM64.9573 118.101L63.6651 119.025L62.8771 118.834L61.0491 119.731L60.7024 119.541L58.6223 121.551L56.5106 121.958L56.6997 122.936L57.6452 124.05L59.4102 125.517L59.1266 126.087L60.4503 126.576L59.7569 126.685L58.9059 126.114L59.3472 126.956L58.7799 127.255L56.9834 125.843L55.5651 126.06L53.1382 126.848L54.2414 127.907L54.0838 128.559L54.8087 129.32L57.204 130.135L58.9374 129.374L59.2211 129.944L58.7483 131.656H57.2985L55.5966 132.308L55.5021 131.846L54.6196 132.145L54.2098 132.932L52.76 133.883V135.268L53.3274 135.486L52.8861 136.654L54.7771 138.066L55.9748 137.632L55.7227 139.37L56.0694 139.75L57.5192 140.022L58.055 140.538L59.3157 140.62L59.9145 141.163L61.2067 140.837L60.6079 141.543L60.1351 142.983L56.29 145.129L55.7857 145.564L55.0608 145.319L53.8947 145.564L52.2242 146.514L54.8402 145.862L55.2184 146.351L58.5908 145.401L58.6853 145.781L60.009 144.64L62.7826 142.983L63.0032 143.092L65.43 141.435L64.7997 140.783L65.6191 139.615L67.7623 137.414L69.4012 137.143L69.9055 137.442L67.9199 137.931L67.3841 139.75L67.4472 140.728L68.1405 140.674L71.4814 138.936L71.7335 138.284L71.4499 137.279L72.4584 137.496L73.1833 137.088L75.2635 138.175L75.1059 138.474L79.8335 138.99L80.9366 138.691L81.2518 139.099L85.349 140.783L86.0424 140.43L86.1055 138.392L86.6413 139.316L89.2887 140.973L89.5093 141.652L91.8101 142.766L92.4089 144.205L92.9762 143.092L94.1424 145.047L94.9303 143.934L94.3 142.548L91.8731 142.331L88.1541 139.262L86.137 137.985L84.5926 139.289H83.6786L81.5669 138.094L79.4868 138.012L76.5242 121.904L76.0199 121.143L74.8222 120.519L73.0257 120.817L71.639 120.573L69.874 119.975L68.0145 120.084L67.5417 119.323L66.0604 119.133L65.8082 118.672L65.1464 119.323L64.9573 118.101Z" fill="#273340"/>
<path d="M30.4457 146.053V146.08M29.5947 145.455V145.428M53.2328 147.384V147.411M54.0207 146.895L53.9892 146.84M55.6596 145.292H55.6281M57.7713 144.423L57.8028 144.396M58.7168 144.097L58.7484 144.07M61.8055 143.662L61.774 143.635M44.6916 133.775L44.7231 133.666M69.2436 137.197V137.116M54.2729 132.905V132.878M54.2729 132.797L54.2413 132.742M54.8402 132.09H54.8087M48.9779 129.401L48.9149 129.374M29.2796 145.89L29.122 145.944L29.248 145.971L29.2796 145.89ZM29.8784 145.591V145.672L29.9414 145.645L29.8784 145.591ZM30.1936 145.727V145.672L30.162 145.699L30.1936 145.727ZM30.1305 145.672V145.645H30.0675L30.1305 145.672ZM5.54696 127.826L5.51544 128.016L5.57848 128.559L5.54696 127.826ZM5.38937 127.092L5.42089 127.337L5.4524 127.255L5.38937 127.092ZM30.1305 145.346L30.1621 145.183L30.036 145.238L30.1305 145.346ZM33.7235 146.677L33.692 146.65L33.755 146.759L33.7235 146.677ZM31.3912 145.727L31.0445 145.455V146.107L31.3912 145.727ZM32.1792 146.324L32.1476 146.134L31.6118 146.107L32.1792 146.324ZM34.0702 146.704L34.0387 146.759H34.1017L34.0702 146.704ZM34.1963 146.732H34.1332L34.2593 146.759L34.1963 146.732ZM34.5745 146.84H34.543H34.5114H34.5745ZM6.74462 128.423L6.87069 128.45L6.96524 128.423H6.74462ZM33.8811 146.46L33.629 146.433L33.7235 146.514L33.8811 146.46ZM5.04268 126.305L4.60144 126.142L4.56992 126.223L5.04268 126.305ZM34.669 146.514L34.606 146.487V146.514H34.669ZM36.5916 146.84L35.3624 146.922L35.0788 147.03L36.5916 146.84ZM2.80494 122.04H2.45825L2.52129 122.121L2.80494 122.04ZM40.4052 148.09V147.981H40.3422L40.4052 148.09ZM42.0441 148.117L42.1071 148.063L42.0441 148.008V148.117ZM43.2733 148.416L43.3363 148.389H43.3048L43.2733 148.416ZM42.2647 147.927L42.2332 147.818H42.1702L42.2647 147.927ZM44.3764 148.334L44.3449 148.361H44.3764V148.334ZM2.99405 120.655L2.52129 120.709L3.12012 121.171L2.99405 120.655ZM42.706 147.927L42.769 147.764H42.7375L42.706 147.927ZM48.0324 147.519L48.064 147.465L48.0009 147.438L48.0324 147.519ZM47.2445 147.275L46.1414 148.117L46.9293 148.063L47.8433 147.438L47.2445 147.275ZM49.2301 147.574L49.0095 147.519L49.167 147.628L49.2301 147.574ZM49.6713 147.601L49.3246 147.519L49.2616 147.547L49.6713 147.601ZM48.4737 147.221H48.127L48.7258 147.356L48.4737 147.221ZM49.9235 147.492L49.8919 147.438L49.7659 147.465L49.9235 147.492ZM48.9779 147.166L48.8519 147.112V147.411L48.9779 147.166ZM53.0122 147.845L52.9806 147.818H52.9176L53.0122 147.845ZM53.0752 147.818V147.791L53.0122 147.764L53.0752 147.818ZM52.5394 147.655L52.6024 147.764V147.737L52.5394 147.655ZM52.8231 147.655L52.5394 147.574L52.8861 147.791L52.8231 147.655ZM56.9834 147.791L56.9203 147.682H56.8888L56.9834 147.791ZM90.8961 145.971L90.8331 145.917L90.8646 145.971H90.8961ZM52.697 146.813V146.786L52.6655 146.813H52.697ZM91.8101 145.482L91.9047 145.591H91.9677L91.8101 145.482ZM57.3616 147.519L57.33 147.547V147.628L57.3616 147.519ZM53.4534 147.03L53.5164 146.813H53.4849L53.4534 147.03ZM93.6381 144.857L93.3545 144.993L93.6066 145.102L93.6381 144.857ZM51.6569 146.297L50.869 146.433L50.1756 147.221L51.6569 146.297ZM57.2985 147.329L57.1094 147.465L57.2985 147.438V147.329ZM93.6381 144.722L93.5751 144.613L93.5436 144.667L93.6381 144.722ZM54.2729 146.623L54.0522 146.596L54.2729 146.786V146.623ZM91.558 145.075L91.4949 145.129L91.558 145.319V145.075ZM54.7772 146.596L54.6826 146.623L54.8087 146.704L54.7772 146.596ZM57.1094 147.166H57.0149L56.9519 147.112L57.1094 147.166ZM54.525 146.596L54.3674 146.514L54.4305 146.596H54.525ZM56.6367 146.895L56.353 146.976L56.1639 147.411L56.6367 146.895ZM90.8646 144.993V145.183L90.9906 145.047L90.8646 144.993ZM52.9176 146.025L53.1698 145.971H53.1382L52.9176 146.025ZM52.6024 145.862L52.5394 145.808V145.835L52.6024 145.862ZM90.8646 144.803L90.8015 144.776L90.77 144.857L90.8646 144.803ZM56.29 146.433L56.227 146.406L56.1639 146.487L56.29 146.433ZM90.5494 144.857L90.5809 144.722L90.5179 144.694L90.5494 144.857ZM90.2973 144.722L90.2027 144.83L90.3603 144.857L90.2973 144.722ZM57.6137 146.053L57.5507 145.998H57.5192L57.6137 146.053ZM90.2027 144.233L90.4549 144.314L90.5494 144.205L90.2027 144.233ZM90.5809 144.042L90.4864 144.097L90.644 144.178L90.5809 144.042ZM89.856 144.205L89.793 144.097L89.73 144.151L89.856 144.205ZM93.0078 143.2L92.598 144.205L93.0078 143.988V143.2ZM90.2342 143.581L89.9506 143.825L90.0136 144.097L90.2342 143.581ZM60.8915 145.754V145.645L60.86 145.699L60.8915 145.754ZM89.8875 143.309L90.8015 144.504L92.8502 145.618L92.3774 144.667L90.4233 143.228L89.8875 143.309ZM59.6308 145.319L59.5993 145.238L59.5363 145.265L59.6308 145.319ZM90.9591 142.847L90.8331 143.255L91.0537 143.119L90.9591 142.847ZM91.621 142.847L91.5895 143.119L91.8731 143.2L91.621 142.847ZM60.6394 144.966L60.4818 144.939L60.3242 144.993L60.6394 144.966ZM63.8857 145.183L63.7596 145.373L63.8226 145.21L63.8857 145.183ZM64.3584 145.21L64.0748 145.238L64.2324 145.401L64.3584 145.21ZM45.2589 141.734L45.5741 141.869L45.511 141.815L45.2589 141.734ZM57.8659 144.396H57.8974V144.368L57.8659 144.396ZM90.4549 142.304L90.6124 142.82L90.9276 142.657L90.4549 142.304ZM89.0996 142.521L89.2572 143.771L89.5724 143.499L89.0996 142.521ZM89.2572 142.114L89.9821 142.983L89.8875 142.413L89.2572 142.114ZM87.0195 142.331L86.8304 142.847L87.0825 142.494L87.0195 142.331ZM64.7997 143.716L64.7366 143.635L64.7997 143.744V143.716ZM87.0825 141.924L88.3432 143.716L88.1541 142.494L87.0825 141.924ZM66.5647 142.874L66.4701 142.956L66.6277 143.01L66.5647 142.874ZM66.1549 142.929L66.1865 142.847H66.0604L66.1549 142.929ZM65.8398 142.929L65.0203 143.39L64.0117 144.531L64.516 144.993L66.8483 143.499L65.8398 142.929ZM85.7272 141.163L85.5066 141.054V141.217L85.7272 141.163ZM65.6506 142.603L65.6822 142.711L65.9028 142.82L65.6506 142.603ZM86.3261 140.647L85.6957 140.919L86.2946 141.082L86.3261 140.647ZM85.9164 140.647L85.8533 140.593L85.8218 140.647H85.9164ZM87.8389 140.212L87.5868 140.131L87.5237 140.294L87.8389 140.212ZM86.4837 140.402L86.263 140.375V140.43L86.4837 140.402ZM87.177 140.185L88.4693 141.815L88.1226 140.321L87.177 140.185ZM66.3755 141.951L65.6191 142.44L65.9658 142.766L66.9744 142.114L66.3755 141.951ZM57.8028 140.919L57.7713 140.891V140.919H57.8028ZM57.4561 140.783L57.4246 140.647V140.701L57.4561 140.783ZM67.132 141.136L67.0689 141.163V141.19L67.132 141.136ZM66.8168 141.082H66.7853L66.7222 141.163L66.8168 141.082ZM67.5732 140.864L67.4787 140.81V140.837L67.5732 140.864ZM67.8254 140.837L67.7308 140.783V140.81L67.8254 140.837ZM67.4156 140.756H67.2896V140.783L67.4156 140.756ZM73.6876 140.212L73.7191 140.131L73.6561 140.185L73.6876 140.212ZM75.6102 139.343L75.9884 138.936L75.8623 139.017L75.6102 139.343ZM71.765 139.289L71.8911 139.207L71.9226 139.099L71.765 139.289ZM71.765 138.99L71.639 139.071L71.8596 139.017L71.765 138.99ZM66.5962 138.99L66.5646 138.881H66.5331L66.5962 138.99ZM71.639 138.963L71.5129 139.071L71.4499 139.18L71.639 138.963ZM75.1059 138.637H75.1374H75.1689H75.1059ZM75.2635 138.637L75.2004 138.61V138.637H75.2635ZM74.8853 138.61L74.9168 138.637V138.61H74.8853ZM72.3008 138.773L72.4269 138.664L72.2693 138.773H72.3008ZM72.679 138.528L71.9226 139.588L72.8997 138.61L72.679 138.528ZM71.702 138.664L71.6074 138.555L71.5759 138.61L71.702 138.664ZM74.0973 138.42L74.0343 138.392L74.0658 138.42H74.0973ZM74.9168 138.474V138.284L74.8537 138.365L74.9168 138.474ZM51.783 136.382L50.2702 136.328L51.3102 137.279L51.783 136.382ZM73.3094 138.311L73.3724 138.501L73.53 138.284L73.3094 138.311ZM72.0487 138.284L71.9541 138.881L72.1117 138.501L72.0487 138.284ZM71.7335 137.903L71.765 137.985L71.8281 137.958L71.7335 137.903ZM71.5759 138.012L71.5129 137.849L71.4183 137.903L71.5759 138.012ZM73.0572 137.686V137.577L72.9627 137.632L73.0572 137.686ZM71.639 137.523V137.795L71.7335 137.605L71.639 137.523ZM52.7915 133.829L52.8546 133.666L52.8231 133.693L52.7915 133.829ZM52.8861 133.557L52.8546 133.53L52.823 133.557H52.8861ZM55.0293 132.145L54.9032 132.09V132.118L55.0293 132.145ZM54.8402 132.036V131.982L54.7772 132.036H54.8402ZM49.7974 130.759L49.7344 130.624L49.7028 130.542L49.7974 130.759ZM50.2702 130.27H50.3017L50.3332 130.298L50.2702 130.27ZM49.4192 130.135L49.167 129.863L49.3562 130.08L49.4192 130.135ZM48.9149 129.7H48.8519L48.9464 129.727L48.9149 129.7ZM57.267 131.52L56.9203 131.547L57.1094 131.629L57.267 131.52ZM48.5682 128.885L48.3161 129.7L49.104 129.809L50.1441 130.732L50.7744 130.488L48.5682 128.885ZM54.0838 129.211V129.157V129.184V129.211ZM52.5079 126.332L52.4449 126.305L52.4764 126.332H52.5079ZM53.4219 126.603L53.5164 126.576H53.4849L53.4219 126.603ZM54.0522 126.44H54.1468L54.4305 126.332L54.0522 126.44ZM55.1869 126.142L55.2499 126.087L55.1554 126.142H55.1869ZM55.3445 126.114L55.5336 126.033L55.376 126.06L55.3445 126.114ZM55.8172 125.951L55.6596 125.979V126.006L55.8172 125.951ZM76.0514 121.035L75.9253 120.953L75.7047 120.872L76.0514 121.035ZM59.5363 120.437L59.8199 120.111L59.6623 120.22L59.5363 120.437ZM59.9145 120.057L60.0406 119.894L59.9775 119.948L59.9145 120.057ZM60.1036 119.84L60.3242 119.677L60.1981 119.731L60.1036 119.84ZM70.0316 119.894L70.1892 120.03H70.2837L70.0316 119.894ZM64.9573 118.101L63.6651 119.025L62.8771 118.834L61.0491 119.731L60.7024 119.541L58.6223 121.551L56.5106 121.958L56.6997 122.936L57.6452 124.05L59.4102 125.517L59.1266 126.087L60.4503 126.576L59.7569 126.685L58.9059 126.114L59.3472 126.956L58.7799 127.255L56.9834 125.843L55.5651 126.06L53.1382 126.848L54.2414 127.907L54.0838 128.559L54.8087 129.32L57.204 130.135L58.9374 129.374L59.2211 129.944L58.7483 131.656H57.2985L55.5966 132.308L55.5021 131.846L54.6196 132.145L54.2098 132.932L52.76 133.883V135.268L53.3273 135.486L52.8861 136.654L54.7772 138.066L55.9748 137.632L55.7227 139.37L56.0694 139.75L57.5192 140.022L58.055 140.538L59.3157 140.62L59.9145 141.163L61.2067 140.837L60.6079 141.543L60.1351 142.983L56.29 145.129L55.7857 145.564L55.0608 145.319L53.8947 145.564L52.2242 146.514L54.8402 145.862L55.2184 146.351L58.5908 145.401L58.6853 145.781L60.009 144.64L62.7826 142.983L63.0032 143.092L65.43 141.435L64.7997 140.783L65.6191 139.615L67.7623 137.414L69.4012 137.143L69.9055 137.442L67.9199 137.931L67.3841 139.75L67.4471 140.728L68.1405 140.674L71.4814 138.936L71.7335 138.284L71.4499 137.279L72.4584 137.496L73.1833 137.088L75.2635 138.175L75.1059 138.474L79.8335 138.99L80.9366 138.691L81.2518 139.099L85.349 140.783L86.0424 140.43L86.1055 138.392L86.6413 139.316L89.2887 140.973L89.5093 141.652L91.8101 142.766L92.4089 144.205L92.9762 143.092L94.1424 145.047L94.9303 143.934L94.3 142.548L91.8731 142.331L88.1541 139.262L86.137 137.985L84.5926 139.289H83.6786L81.5669 138.094L79.4868 138.012L76.5242 121.904L76.0199 121.143L74.8222 120.519L73.0257 120.817L71.639 120.573L69.874 119.975L68.0145 120.084L67.5417 119.323L66.0604 119.133L65.8082 118.672L65.1464 119.323L64.9573 118.101Z" stroke="white" stroke-width="0.970631" stroke-linejoin="round"/>
</g>
<defs>
<clipPath id="clip0_170_403">
<rect width="315.174" height="148.369" fill="white" transform="translate(0 0.046875)"/>
</clipPath>
</defs>
</svg>
