<svg width="24" height="24" viewBox="0 0 24 24" fill="none" xmlns="http://www.w3.org/2000/svg">
<path fill-rule="evenodd" clip-rule="evenodd" d="M8.65528 0.473048C6.3354 1.14785 4.27296 2.50663 2.73739 4.37189C1.20181 6.23715 0.264483 8.52218 0.0478516 10.9285H5.53357C5.85158 7.26685 6.91323 3.70859 8.65357 0.471334L8.65528 0.473048ZM5.53357 13.0713H0.0478516C0.26403 15.4777 1.20095 17.763 2.73623 19.6285C4.27151 21.4941 6.33375 22.8533 8.65357 23.5285C6.91323 20.2912 5.85158 16.733 5.53357 13.0713ZM11.4033 23.9862C9.3235 20.6904 8.04911 16.9512 7.68328 13.0713H16.3147C15.9489 16.9512 14.6745 20.6904 12.5947 23.9862C12.1978 24.0055 11.8002 24.0055 11.4033 23.9862ZM15.3461 23.5268C17.6657 22.8517 19.7278 21.4928 21.263 19.6275C22.7983 17.7623 23.7353 15.4774 23.9519 13.0713H18.4661C18.1481 16.733 17.0865 20.2912 15.3461 23.5285V23.5268ZM18.4661 10.9285H23.9519C23.7357 8.52209 22.7987 6.23684 21.2635 4.37127C19.7282 2.50569 17.666 1.14653 15.3461 0.471334C17.0865 3.70858 18.1482 7.26684 18.4661 10.9285ZM11.4033 0.0136195C11.8008 -0.00584192 12.1989 -0.00584192 12.5964 0.0136195C14.6756 3.30952 15.9494 7.04872 16.3147 10.9285H7.68499C8.05699 7.02505 9.33414 3.28276 11.4033 0.0136195Z" fill="white"/>
</svg>
