<svg width="8" height="12" viewBox="0 0 8 12" fill="none" xmlns="http://www.w3.org/2000/svg">
<path fill-rule="evenodd" clip-rule="evenodd" d="M0.910859 6.58929C0.754633 6.43302 0.66687 6.22109 0.66687 6.00012C0.66687 5.77915 0.754633 5.56723 0.910859 5.41096L5.62503 0.69679C5.7019 0.617198 5.79385 0.553713 5.89552 0.510039C5.99719 0.466364 6.10654 0.443376 6.21719 0.442414C6.32784 0.441453 6.43757 0.462538 6.53999 0.504438C6.6424 0.546339 6.73544 0.608217 6.81369 0.686461C6.89193 0.764705 6.95381 0.857748 6.99571 0.960161C7.03761 1.06257 7.0587 1.17231 7.05773 1.28296C7.05677 1.39361 7.03378 1.50296 6.99011 1.60463C6.94644 1.7063 6.88295 1.79825 6.80336 1.87512L2.67836 6.00012L6.80336 10.1251C6.95516 10.2823 7.03915 10.4928 7.03725 10.7113C7.03536 10.9298 6.94771 11.1388 6.79321 11.2933C6.6387 11.4478 6.42969 11.5355 6.21119 11.5374C5.9927 11.5393 5.78219 11.4553 5.62503 11.3035L0.910859 6.58929Z" fill="#273340"/>
</svg>
