<svg width="13" height="10" viewBox="0 0 13 10" fill="none" xmlns="http://www.w3.org/2000/svg">
<path d="M6.293 0.293201C6.20005 0.385989 6.12632 0.496193 6.07601 0.617508C6.0257 0.738823 5.9998 0.868868 5.9998 1.0002C5.9998 1.13153 6.0257 1.26158 6.07601 1.38289C6.12632 1.50421 6.20005 1.61441 6.293 1.7072L8.586 4.0002H1C0.734784 4.0002 0.48043 4.10556 0.292893 4.29309C0.105357 4.48063 0 4.73498 0 5.0002C0 5.26542 0.105357 5.51977 0.292893 5.70731C0.48043 5.89484 0.734784 6.0002 1 6.0002H8.586L6.293 8.2932C6.10549 8.48071 6.00015 8.73502 6.00015 9.0002C6.00015 9.26538 6.10549 9.51969 6.293 9.7072C6.48051 9.89471 6.73482 10.0001 7 10.0001C7.26518 10.0001 7.51949 9.89471 7.707 9.7072L12.414 5.0002L7.707 0.293201C7.61421 0.200256 7.50401 0.126518 7.38269 0.0762072C7.26138 0.0258964 7.13133 0 7 0C6.86867 0 6.73862 0.0258964 6.61731 0.0762072C6.49599 0.126518 6.38579 0.200256 6.293 0.293201Z" fill="#41D77D"/>
</svg>
