<svg width="18" height="20" viewBox="0 0 18 20" fill="none" xmlns="http://www.w3.org/2000/svg">
<path d="M9.00002 10.8332C9.22103 10.8332 9.433 10.7454 9.58928 10.5891C9.74556 10.4328 9.83335 10.2209 9.83335 9.99984C9.83335 9.77882 9.74556 9.56686 9.58928 9.41058C9.433 9.2543 9.22103 9.1665 9.00002 9.1665C8.77901 9.1665 8.56705 9.2543 8.41076 9.41058C8.25448 9.56686 8.16669 9.77882 8.16669 9.99984C8.16669 10.2209 8.25448 10.4328 8.41076 10.5891C8.56705 10.7454 8.77901 10.8332 9.00002 10.8332Z" fill="#FC9F00" stroke="#FC9F00" stroke-width="1.5" stroke-linecap="round" stroke-linejoin="round"/>
<path d="M16.5 6.12735V13.8723C16.5 13.9616 16.4762 14.0493 16.4309 14.1262C16.3856 14.2031 16.3206 14.2666 16.2425 14.3098L9.2425 18.1982C9.1683 18.2393 9.08485 18.2609 9 18.2609C8.91515 18.2609 8.8317 18.2393 8.7575 18.1982L1.7575 14.3098C1.67943 14.2666 1.61438 14.2031 1.5691 14.1262C1.52381 14.0493 1.49996 13.9616 1.5 13.8723V6.12735C1.50011 6.03822 1.52403 5.95073 1.56931 5.87396C1.61458 5.79718 1.67955 5.73391 1.7575 5.69068L8.7575 1.80151C8.8317 1.76036 8.91515 1.73877 9 1.73877C9.08485 1.73877 9.1683 1.76036 9.2425 1.80151L16.2425 5.69068C16.3204 5.73391 16.3854 5.79718 16.4307 5.87396C16.476 5.95073 16.4999 6.03822 16.5 6.12735Z" stroke="#FC9F00" stroke-width="1.5" stroke-linecap="round" stroke-linejoin="round"/>
</svg>
