<svg width="17" height="17" viewBox="0 0 17 17" fill="none" xmlns="http://www.w3.org/2000/svg">
<g clip-path="url(#clip0_170_507)">
<path fill-rule="evenodd" clip-rule="evenodd" d="M8.33341 3.13135C8.90341 3.13135 9.48808 3.14601 10.0547 3.17001L10.7241 3.20201L11.3647 3.24001L11.9647 3.28068L12.5127 3.32335C13.1074 3.36887 13.667 3.62265 14.0931 4.04004C14.5192 4.45744 14.7844 5.01171 14.8421 5.60535L14.8687 5.88868L14.9187 6.49535C14.9654 7.12401 15.0001 7.80935 15.0001 8.46468C15.0001 9.12001 14.9654 9.80535 14.9187 10.434L14.8687 11.0407C14.8601 11.138 14.8514 11.232 14.8421 11.324C14.7843 11.9178 14.519 12.4721 14.0928 12.8895C13.6667 13.3069 13.1069 13.5606 12.5121 13.606L11.9654 13.648L11.3654 13.6893L10.7241 13.7273L10.0547 13.7593C9.4813 13.7843 8.9074 13.7972 8.33341 13.798C7.75943 13.7972 7.18553 13.7843 6.61208 13.7593L5.94275 13.7273L5.30208 13.6893L4.70208 13.648L4.15408 13.606C3.55938 13.5605 2.99978 13.3067 2.57373 12.8893C2.14768 12.4719 1.88246 11.9177 1.82475 11.324L1.79808 11.0407L1.74808 10.434C1.69711 9.77877 1.66998 9.12189 1.66675 8.46468C1.66675 7.80935 1.70141 7.12401 1.74808 6.49535L1.79808 5.88868C1.80675 5.79135 1.81541 5.69735 1.82475 5.60535C1.88244 5.01181 2.14756 4.45762 2.57348 4.04024C2.99939 3.62286 3.55883 3.36902 4.15341 3.32335L4.70075 3.28068L5.30075 3.24001L5.94208 3.20201L6.61141 3.17001C7.18508 3.1451 7.75921 3.13221 8.33341 3.13135ZM7.00008 6.84801V10.0813C7.00008 10.3893 7.33341 10.5813 7.60008 10.428L10.4001 8.81135C10.461 8.77628 10.5116 8.72576 10.5468 8.6649C10.582 8.60404 10.6005 8.53498 10.6005 8.46468C10.6005 8.39438 10.582 8.32532 10.5468 8.26446C10.5116 8.2036 10.461 8.15309 10.4001 8.11801L7.60008 6.50201C7.53925 6.4669 7.47025 6.44841 7.40002 6.44842C7.32978 6.44844 7.26079 6.46694 7.19997 6.50208C7.13915 6.53722 7.08866 6.58775 7.05357 6.64859C7.01849 6.70943 7.00004 6.77844 7.00008 6.84868V6.84801Z" fill="#FC9F00"/>
</g>
<defs>
<clipPath id="clip0_170_507">
<rect width="16" height="16" fill="white" transform="translate(0.333374 0.464844)"/>
</clipPath>
</defs>
</svg>
