<svg width="60" height="60" viewBox="0 0 60 60" fill="none" xmlns="http://www.w3.org/2000/svg">
<path d="M30 5.625C25.1791 5.625 20.4664 7.05457 16.458 9.73293C12.4495 12.4113 9.32533 16.2181 7.48045 20.6721C5.63556 25.126 5.15285 30.027 6.09337 34.7553C7.03388 39.4836 9.35538 43.8268 12.7643 47.2357C16.1732 50.6446 20.5164 52.9661 25.2447 53.9066C29.973 54.8472 34.874 54.3644 39.3279 52.5196C43.7819 50.6747 47.5887 47.5505 50.2671 43.542C52.9454 39.5336 54.375 34.8209 54.375 30C54.3682 23.5374 51.7979 17.3415 47.2282 12.7718C42.6585 8.20209 36.4626 5.63182 30 5.625ZM30 50.625C25.9208 50.625 21.9331 49.4154 18.5414 47.1491C15.1496 44.8828 12.5061 41.6616 10.945 37.8928C9.38394 34.1241 8.97549 29.9771 9.77131 25.9763C10.5671 21.9754 12.5315 18.3004 15.4159 15.4159C18.3004 12.5315 21.9754 10.5671 25.9763 9.7713C29.9771 8.97548 34.1241 9.38393 37.8929 10.945C41.6616 12.506 44.8828 15.1496 47.1491 18.5414C49.4154 21.9331 50.625 25.9208 50.625 30C50.6188 35.4682 48.4438 40.7106 44.5772 44.5772C40.7106 48.4438 35.4682 50.6188 30 50.625ZM18.75 25.3125C18.75 24.7562 18.915 24.2125 19.224 23.75C19.533 23.2874 19.9723 22.927 20.4862 22.7141C21.0001 22.5012 21.5656 22.4455 22.1112 22.554C22.6568 22.6626 23.1579 22.9304 23.5512 23.3238C23.9446 23.7171 24.2124 24.2182 24.321 24.7638C24.4295 25.3094 24.3738 25.8749 24.1609 26.3888C23.9481 26.9027 23.5876 27.342 23.1251 27.651C22.6625 27.9601 22.1188 28.125 21.5625 28.125C20.8166 28.125 20.1012 27.8287 19.5738 27.3012C19.0463 26.7738 18.75 26.0584 18.75 25.3125ZM41.25 25.3125C41.25 25.8688 41.0851 26.4125 40.776 26.875C40.467 27.3376 40.0277 27.698 39.5138 27.9109C38.9999 28.1238 38.4344 28.1795 37.8888 28.071C37.3432 27.9624 36.8421 27.6946 36.4488 27.3012C36.0554 26.9079 35.7876 26.4068 35.6791 25.8612C35.5705 25.3156 35.6262 24.7501 35.8391 24.2362C36.052 23.7223 36.4125 23.283 36.875 22.974C37.3375 22.6649 37.8813 22.5 38.4375 22.5C39.1834 22.5 39.8988 22.7963 40.4262 23.3238C40.9537 23.8512 41.25 24.5666 41.25 25.3125ZM40.9992 36.5625C38.5875 40.732 34.5774 43.125 30 43.125C25.4227 43.125 21.4149 40.7344 19.0031 36.5625C18.8675 36.3491 18.7764 36.1104 18.7353 35.8609C18.6943 35.6114 18.7042 35.3561 18.7643 35.1105C18.8245 34.8649 18.9337 34.634 19.0854 34.4317C19.2371 34.2294 19.4282 34.0598 19.6471 33.9333C19.8661 33.8067 20.1084 33.7258 20.3594 33.6953C20.6104 33.6648 20.865 33.6854 21.1079 33.7559C21.3508 33.8263 21.5769 33.9452 21.7726 34.1053C21.9683 34.2654 22.1297 34.4634 22.2469 34.6875C23.9977 37.7133 26.7492 39.375 30 39.375C33.2508 39.375 36.0024 37.7109 37.7508 34.6875C37.9994 34.2567 38.409 33.9424 38.8894 33.8136C39.3698 33.6848 39.8817 33.7521 40.3125 34.0008C40.7433 34.2494 41.0576 34.659 41.1864 35.1394C41.3152 35.6198 41.2479 36.1317 40.9992 36.5625Z" fill="#FC9F00"/>
</svg>
